<?xml version="1.0" encoding="utf-8"?>
<!-- Generator: Adobe Illustrator 23.0.1, SVG Export Plug-In . SVG Version: 6.00 Build 0)  -->
<svg version="1.1" id="Layer_1" xmlns="http://www.w3.org/2000/svg" xmlns:xlink="http://www.w3.org/1999/xlink" x="0px" y="0px"
	 viewBox="0 0 600 600" style="enable-background:new 0 0 600 600;" xml:space="preserve">
<style type="text/css">
	.st0{opacity:0.49;fill:#666633;}
</style>
<path class="st0" d="M600,325.1v-1.2c-6.5,3.8-13.1,7.6-14.7,8.6c-10.6,6.6-18.6,12.6-24.7,19.1c-5.6,6-12.4,10.1-22.4,14.1
	c-1.5,0.6-3,1.2-4.8,1.9l-4.8,1.8c-9.8,3.8-14.8,6.3-19,10.1c-4.2,3.9-9.6,6.6-16.8,8.8c-2,0.6-4,1.2-6.5,1.8l-6.1,1.5
	c-5.3,1.4-8.3,2.4-10.5,3.8c-3.1,1.9-6.6,3.3-12.7,5c-1.6,0.5-3.2,0.9-4.8,1.4c-2,0.6-3.6,1-5.2,1.5c-3.8,1.1-7.5,2.5-11.2,4
	c-2.7,1.1-5.5,3.9-8.8,8.4c-2.2,3-4.2,6.1-6.1,9.2c-5.8,9.1-7.6,11.7-10.2,14.5c-1.4,1.5-3,2.9-4.6,4.2c-2.3,1.9-10.4,7.5-11.8,8.7
	c-1.5,1.1-2.7,2.5-3.7,4.1c-1.2,2.3-1.9,4.6-2.8,8.9c-2.2,10.6-3.5,14.8-8.2,22.1c-4.1,6.3-6.8,9.9-9.8,13c-0.5,0.5-1,1-1.5,1.5
	l-3.8,3.6c-1.7,1.6-3.2,3.1-4.9,4.9c-4.6,4.8-8,10.6-9.9,16.9c-2.5,8.1-2.7,15.5-1.8,27.2c0.5,5.8,0.5,6.4,0.5,8.2
	c0,10.5,0.1,17.5,0.6,25.8c0.2,4,0.6,7.8,1,11.2h0.9c-1.1-9.6-1.5-21.8-1.5-37c0-1.9,0-2.4-0.5-8.3c-0.9-11.6-0.7-18.9,1.7-26.8
	c1.9-6.2,5.2-11.9,9.6-16.5c1.7-1.8,3.2-3.3,4.8-4.9c0.6-0.6,3.1-3,3.8-3.6c0.5-0.5,1-1,1.5-1.5c3.1-3.2,5.9-6.8,10-13.1
	c4.8-7.4,6.1-11.7,8.3-22.4c0.9-4.2,1.5-6.4,2.7-8.6c0.7-1.3,1.8-2.5,3.4-3.9c1.4-1.1,9.4-6.8,11.8-8.7c1.7-1.4,3.3-2.8,4.7-4.3
	c2.7-2.9,4.6-5.5,10.4-14.7c1.9-3.1,4-6.2,6.1-9.1c3.2-4.3,5.9-7,8.4-8.1c3.5-1.5,7.1-2.8,11.1-4c2.5-0.8,5.1-1.5,7.6-2.2l2.4-0.7
	c6.2-1.8,9.8-3.2,13-5.1c2.1-1.3,5.1-2.3,10.3-3.6l6.1-1.5c2.5-0.6,4.5-1.2,6.5-1.8c7.2-2.3,12.8-5.1,17.1-9c4.1-3.7,9-6.2,18.7-9.9
	l4.8-1.8c1.9-0.7,3.4-1.3,4.8-1.9c10.1-4.1,17.1-8.3,22.8-14.4c6-6.5,14-12.4,24.5-18.9C587.4,332.5,593.7,328.8,600,325.1v-64.6
	c-4,8.1-8.5,14.9-12.7,17.9c-2.5,1.8-5.4,4-9,6.9c-2.1,1.7-4.2,3.3-6.2,5l-1.3,1c-1.6,1.3-3.2,2.6-4.9,3.9c-7.5,6-12.9,10-17.6,13.2
	c-3.1,2.1-3.9,2.8-8.1,7.1c-5.8,6.1-11.7,8.6-29.1,11c-11.3,1.5-20,4.9-30.8,11.1c-1.6,0.9-7.3,4.3-7,4.1c-2.7,1.6-4.7,2.7-6.6,3.7
	c-5.6,2.8-10.5,4.2-15.7,4.2c-17.1,0-41.4,11.5-51.6,22.8c-12,13.4-31.4,27.7-45.3,31.2c-7.4,1.9-11.9,7-14,14.7
	c-1.3,4.4-1.6,8.3-1.6,13.8c0,0.8,0,1,0.2,3.6c0.5,5.2,0.4,8.7-0.8,13.3c-1.5,6.2-4.9,12.6-10.6,19.4
	c-13.9,16.6-22.9,46.6-22.9,71.7c0,2.4,0,4.3,0.1,8.8c0.1,10.8,0.1,15.8-0.2,22c-0.6,11.2-2.1,20.7-5,29.3h-1
	c2.9-8.6,4.5-18.1,5-29.3c0.3-6.1,0.3-11.1,0.2-21.9c0-4.5-0.1-6.4-0.1-8.8c0-25.3,9.1-55.5,23.1-72.3c5.6-6.7,8.9-13,10.4-19
	c1.1-4.4,1.2-7.9,0.7-12.9c-0.2-2.7-0.2-2.9-0.2-3.7c0-5.6,0.3-9.6,1.6-14.1c2.3-8,7-13.4,14.8-15.4c13.6-3.4,32.8-17.6,44.8-30.8
	c10.4-11.5,35-23.2,52.4-23.2c5.1,0,9.8-1.3,15.3-4.1c1.9-1,3.9-2,6.6-3.6c-0.3,0.2,5.3-3.2,7-4.1c10.8-6.2,19.7-9.7,31.1-11.2
	c17.2-2.3,22.9-4.8,28.6-10.6c4.3-4.4,5-5.2,8.2-7.3c4.7-3.1,10-7.1,17.5-13.1c1.6-1.3,3.2-2.6,4.9-3.9l1.3-1c2.1-1.7,4.2-3.3,6.2-5
	c3.7-2.9,6.5-5.1,9.1-7c4.4-3.2,9.2-10.6,13.3-19.4L600,325.1L600,325.1z M600,208.9c-0.6,0-1.3,0.1-2,0.1
	c-6.1,0.6-13.8,3.4-21.8,7.4c-3.6,1.8-8.5,2.7-14.2,2.7c-4.7,0-9.7-0.5-14.7-1.3c-1.7-0.3-3.3-0.6-4.7-0.9c-1.2-0.3-2.4-0.4-3.5-0.6
	c-5.5-0.5-11.1-0.8-16.7-0.9c-10.4-0.2-17.2,0.7-18,2.7c-0.4,1,0.6,2.6,3,4.9c1,1,2.2,2,4,3.6c1.6,1.3,3.2,2.7,4.8,4
	c1.4,1.2,3.1,1.9,5.5,2.5c0.7,0.2,0.9,0.2,2.6,0.5c3.5,0.7,5,1.3,6.2,2.6c1.4,1.8,1.4,4.5-0.2,8.9c-2.4,6.8-5.7,10.1-10.2,10.3
	c-3.6,0.2-7.6-1.3-14.5-5.1c-4.5-2.5-6.8-7.3-8.3-15.3c-0.2-0.9-0.3-1.8-0.5-2.9l-0.4-2.8c-1-6.6-1.9-9.2-3.7-10.1
	c-0.8-0.4-1.6-0.7-2.4-1c-2.3-0.8-4.6-1-8.1-0.9c-2.3,0.1-14.7,1-13.8,0.9c-20.5,1.4-28.8,5.1-37.1,15c-1.5,1.8-2.9,3.6-4.3,5.4
	l-2.3,3.1l-2.5,3.3c-4.1,5.4-7.1,8.5-10.4,11.1c-0.6,0.5-1.3,1-2.1,1.6l-4.1,2.9c-1.8,1.3-3.5,2.6-5.2,4c-4.5,3.7-9.7,8.6-16.3,15.4
	c-8.3,8.6-11.8,13.5-11.7,16c0.1,1.6,1.6,2.1,6.8,2.4c1.6,0.1,2.1,0.1,3,0.2c3,0.2,5.1,0.7,6.8,1.7c7.5,4.1,11.6,7.3,14,11.6
	c3.3,6.1,0.8,12.9-8.9,20.3c-8.3,6.3-11.1,10.4-11.3,15c-0.1,1.2,0,1.9,0.3,4.4c0.7,6.5,0.3,10.6-2.8,17.4c-1.1,2.6-2.5,5.2-4.2,7.5
	c-2.8,4-5.5,5.7-10.6,7.7c-0.4,0.2-3.3,1.2-4.3,1.6c-1.8,0.7-3.4,1.4-5,2.1c-4.2,2-8.4,4.6-13.1,8.2c-8.4,6.5-13.2,14.6-16,25.1
	c-1.1,4.2-1.5,6.8-2.8,15.2c-1.3,8.6-2.2,12.6-4.1,16.5c-2.1,4.3-11.9,26.6-13,28.9c-2,4.5-4.2,9-6.4,13.4
	c-4.1,8.1-7.6,14.1-10.7,17.8c-5.4,6.5-9,14.4-13.8,28.4c-0.6,1.9-1.3,3.7-1.9,5.6c-1.8,5.3-3,8.6-4.3,11.8
	c-6.1,15.3-25.4,26.3-46.5,26.3c-11.2,0-20.6-2.7-31-8.5c-5.6-3.1-4.6-2.4-22.3-14.5c-14.3-9.8-17.7-10.7-20.5-6.9
	c-0.4,0.5-1.8,2.7-1.8,2.8c-1.5,2.1-3.2,4.1-4.9,5.9c-0.7,0.8-5.5,5.9-7,7.5c-2.4,2.6-4.3,4.8-6,6.9c-1.9,2.4-3.6,4.9-5.1,7.7
	c-1.3,2.6-1.9,5.3-2.7,10.6c-0.2,1.1-0.3,2.1-0.5,3.2h-1l0.5-3.3c0.8-5.5,1.4-8.2,2.8-10.9c1.5-2.8,3.2-5.4,5.2-7.8
	c1.7-2.1,3.6-4.4,6-7c1.4-1.6,6.2-6.7,7-7.5c1.8-1.8,3.4-3.7,4.8-5.8c0,0,1.5-2.3,1.9-2.8c3.3-4.5,7.1-3.4,21.8,6.7
	c17.7,12.1,16.6,11.4,22.2,14.5c10.3,5.7,19.5,8.4,30.5,8.4c20.6,0,39.6-10.8,45.5-25.7c1.5-3.9,2.9-7.8,4.2-11.8
	c0.6-1.9,1.3-3.7,1.9-5.6c4.8-14.2,8.5-22.1,14-28.7c3-3.7,6.6-9.6,10.6-17.6c2-3.9,4-8.3,6.4-13.4c1-2.3,10.9-24.6,13-28.9
	c1.9-3.8,2.8-7.8,4-16.3c1.2-8.4,1.7-11.1,2.8-15.3c2.8-10.7,7.7-18.9,16.3-25.6c4.1-3.3,8.6-6.1,13.3-8.4c1.7-0.8,3.3-1.5,5.1-2.2
	c0.9-0.4,3.9-1.4,4.3-1.6c5-1.9,7.4-3.5,10.1-7.3c1.4-1.9,2.7-4.3,4.1-7.4c3-6.6,3.4-10.6,2.7-16.9c-0.2-1.5-0.3-3-0.3-4.6
	c0.2-4.9,3.2-9.2,11.7-15.7c9.3-7.1,11.7-13.3,8.6-19c-2.2-4.1-6.3-7.1-13.5-11.2c-1.6-0.9-3.6-1.3-6.4-1.6c-0.8-0.1-1.3-0.1-3-0.2
	c-5.8-0.3-7.6-0.9-7.7-3.3c-0.1-2.8,3.5-7.9,12-16.7c6.5-6.8,11.8-11.7,16.3-15.5c1.8-1.5,3.4-2.7,5.2-4l4.1-2.9
	c0.8-0.6,1.5-1.1,2.1-1.6c3.3-2.6,6.2-5.6,10.2-10.9c0.8-1.1,1.7-2.2,2.5-3.3l2.3-3.1c1.8-2.4,3-4,4.3-5.5c8.5-10.2,17-14,37.3-15.3
	c-0.4,0,12-0.9,14.3-1c3.6-0.1,6,0.2,8.5,1c0.8,0.3,1.6,0.6,2.5,1c2.3,1.1,3.2,3.9,4.3,10.9l0.4,2.8c0.2,1.1,0.3,2,0.5,2.8
	c1.4,7.7,3.6,12.3,7.8,14.6c6.8,3.7,10.6,5.1,14,4.9c4-0.3,7-3.2,9.3-9.7c1.5-4,1.5-6.5,0.3-7.9c-0.9-1.1-2.3-1.6-5.6-2.3
	c-0.9-0.2-1.8-0.3-2.7-0.6c-2.5-0.6-4.4-1.4-5.9-2.7c-1.6-1.4-3.2-2.7-4.8-4c-1.4-1.2-2.8-2.4-4.1-3.6c-2.7-2.6-3.9-4.4-3.3-5.9
	c1-2.6,7.8-3.5,18.9-3.4c5.6,0.1,11.2,0.4,16.7,0.9c2.8,0.4,3.2,0.5,3.7,0.6c1.4,0.3,3,0.6,4.6,0.9c4.8,0.9,9.7,1.3,14.6,1.3
	c5.6,0,10.2-0.9,13.7-2.6c8.1-4.1,15.9-6.9,22.2-7.6c0.7-0.1,1.4-0.1,2-0.1L600,208.9L600,208.9z M600,107.9v1.5
	c-8.6,16.1-17.3,29.6-23.7,35.9c-3.2,3.2-7.6,4.9-13.5,5.6c-4.5,0.5-8.3,0.4-19.2-0.2c-9.9-0.6-15.3-0.4-20.5,0.8
	c-4.9,1.2-9.9,1.9-15,2.1l-2.3,0.1c-12.5,0.8-19.4,1.8-32.7,5.7c-4.5,1.3-9.3,2.5-14.3,3.5c-10.8,2-21.7,3.4-32.6,4
	c-7.6,0.4-13.2,0.6-20.2,0.6c-5.4,0-11.9,1.6-18,5.2c-8.3,4.9-15.1,12.9-19.5,24.5c-1.3,3.4-2.8,6.7-4.6,9.8
	c-3.6,6.2-6.9,9-13.4,12.2l-4,2c-5.5,2.7-10.6,6.1-15.2,10.3c-8.2,7.3-13.7,16.6-22.5,35.6l-2.1,4.5c-7.3,15.7-11.5,23.3-17.4,29.9
	c-7.7,8.7-20.3,14.4-40.3,20.1c-4.4,1.2-19,5.1-19.2,5.1c-6.9,1.9-11.7,3.3-15.6,4.9c-10.6,4.2-18.7,10.5-36.4,26.5l-1.7,1.5
	c-8.6,7.8-13.4,11.9-18.8,15.9c-3.9,2.9-8,5.7-13,8.9c-2.1,1.3-10.3,6.6-12.3,7.9c-11.5,7.5-18.5,13-24.6,20.1
	c-2.4,2.8-4.6,5.7-6.4,8.9c-4.1,6.9-6.3,13.1-9.2,25.1l-1.5,6.3c-0.6,2.5-1.2,4.5-1.7,6.6c-3,10.7-6.9,17.4-14.8,26.9l-4.1,5
	c-1.4,1.7-2.8,3.5-4.2,5.3c-1.5,1.9-2.6,4-3.4,6.3c-1.2,3.2-1.5,5.9-1.9,11.9c-0.6,10-1.4,15-4.6,22.7c-1.6,3.7-5.7,14-6.4,15.8
	c-1.1,2.5-2.2,5-3.6,7.4c-2.9,5.1-6.7,10.1-13.1,17c-6,6.4-8.9,10.9-10.6,16c-0.5,1.6-1,3.2-1.4,4.8l-0.5,1.8h-1l0.5-2.1
	c0.5-2.1,0.9-3.5,1.4-4.9c1.8-5.3,4.8-9.9,10.8-16.4c6.4-6.8,10.1-11.7,13-16.8c1.3-2.4,2.5-4.8,3.5-7.3c0.8-1.8,4.8-12.1,6.4-15.8
	c3.2-7.5,4-12.4,4.6-22.3c0.3-6.1,0.7-8.9,1.9-12.2c0.9-2.3,2.1-4.6,3.6-6.5c1.3-1.7,2.6-3.4,4.2-5.3l4.1-5
	c7.8-9.5,11.7-16,14.6-26.5c0.6-2,1.1-4.1,1.7-6.6l1.5-6.3c3-12,5.1-18.4,9.3-25.4c1.8-3.1,4-6,6.5-9c6.2-7.1,13.2-12.7,24.8-20.3
	c2.1-1.3,10.3-6.6,12.3-7.9c5-3.2,9-6,12.9-8.9c5.4-4,10.2-8.1,18.7-15.8l1.7-1.5c17.8-16.1,26-22.4,36.7-26.7c4-1.6,8.8-3.1,15.8-5
	c0.2-0.1,14.9-3.9,19.2-5.1c19.9-5.6,32.3-11.3,39.8-19.8c5.8-6.5,9.9-14,17.2-29.6l2.1-4.5c8.9-19.1,14.4-28.5,22.8-35.9
	c4.6-4.2,9.8-7.7,15.4-10.4l4-2c6.3-3.1,9.5-5.8,13-11.8c1.7-3.1,3.2-6.3,4.5-9.7c4.6-11.8,11.5-20,20-25c6.3-3.7,12.9-5.3,18.5-5.3
	c7,0,12.6-0.1,20.2-0.6c10.9-0.6,21.7-1.9,32.5-4c5-1,9.8-2.1,14.2-3.4c13.4-4,20.4-5,32.9-5.8l2.2-0.1c5.8-0.4,9.8-0.9,14.8-2.1
	c5.3-1.3,10.8-1.4,22.6-0.7c9,0.5,12.8,0.6,17.2,0.1c5.7-0.6,9.9-2.3,13-5.3C582.1,138.2,591,124.3,600,107.9L600,107.9z M600,558.1
	c-1.3-4.6-2.2-10.5-3.3-20.3l-0.2-2l-0.2-2c-1.8-15.7-3.1-22-5.5-24.5c-2.5-2.5-3-5-2.5-8.6c0.1-0.6,0.2-1.1,0.4-2.1
	c0.7-3.5,0.8-5,0.1-6.8c-0.9-2.4-3.3-4.4-7.8-6.3c-5.1-2.1-6.5-4.8-4.9-8.4c0.7-1.5,1.8-3,3.5-5c1-1.2,5.5-6,5.1-5.5
	c6.2-6.7,9-11.3,9-16.5c-0.1-5.1,2.3-10,6.5-12.9v1.3c-3.6,2.8-5.6,7.1-5.5,11.6c0,5.5-2.9,10.3-9.2,17.2c0.4-0.4-4,4.3-5.1,5.5
	c-1.7,1.9-2.8,3.4-3.4,4.8c-1.4,3-0.2,5.2,4.4,7.1c4.7,2,7.3,4.2,8.3,6.8c0.8,2,0.7,3.7,0,7.4c-0.2,1-0.3,1.5-0.4,2.1
	c-0.5,3.3,0,5.6,2.2,7.8c2.7,2.7,4,9,5.8,25.1l0.2,2l0.2,2c0.8,7,1.5,12.1,2.3,16L600,558.1L600,558.1z M600,496
	c-1.4-3.1-4.4-9.9-5-11.2c-1-2.5-1.3-3.8-0.9-5.2c0.2-0.8,2-4.7,2.3-5.3c1.5-3.6,2.7-7.4,3.5-11.2v4c-0.7,2.6-1.6,5.1-2.6,7.6
	c-0.3,0.8-2.1,4.5-2.3,5.2c-0.3,1.1-0.1,2.2,0.9,4.6c0.4,1,2.5,5.7,4,9.1L600,496L600,496z M600,410.9c-1.7,1.7-3.7,2.9-6.4,4.1
	c-0.3,0.1-14,5.5-20.4,8.4c-9.3,4.3-16.7,5.9-23,5.3c-5.1-0.5-9-2.3-14.8-5.9l-3.2-2.1c-1.8-1.2-3.6-2.3-5.4-3.3
	c-4-2.2-3.3-5.8,1.5-10.5c3.7-3.7,9.6-7.9,18.7-13.8l4.5-2.8c18-11.3,18.2-11.5,22.3-14.7c11.3-9,19.7-14,26.3-15.1v1
	c-6.4,1.1-14.6,6-25.7,14.9c-4.1,3.3-4.3,3.4-22.4,14.8c-1.5,0.9-3,1.9-4.5,2.8c-9.1,5.8-14.9,10-18.6,13.7c-4.3,4.3-5,7.1-1.7,8.9
	c1.7,0.9,3.3,1.9,5.5,3.3l3.2,2.1c5.6,3.6,9.5,5.3,14.3,5.8c6.1,0.6,13.3-0.9,22.5-5.1c6.5-3,20.2-8.4,20.4-8.4
	c3-1.4,5.1-2.7,6.8-4.7L600,410.9L600,410.9z M600,369.5v1c-6.6,0.3-12.1,3.1-19.7,9.1l-4.6,3.7c-1.4,1.1-2.9,2.2-4.4,3.1
	c-0.8,0.5-5.5,3.3-6.2,3.8c-3.3,2-6.2,3.8-8.9,5.6c-2.8,1.9-5.5,3.8-8.2,5.9c-4.6,3.7-7.4,6.9-8,9.4c-0.6,2.7,1.5,4.5,7,5.5
	c10.7,1.8,20.9,0,30.5-4.6c6.4-3.1,12.1-7.2,17.1-12.2c2.1-2.3,3.9-4.8,5.4-7.4v1.9c-1.3,2.2-2.9,4.3-4.6,6.2
	c-5,5.1-10.9,9.3-17.4,12.4c-9.7,4.7-20.1,6.5-31,4.7c-6.1-1-8.7-3.3-7.8-6.7c0.6-2.7,3.5-6,8.3-9.9c2.3-1.9,5.1-3.9,8.2-6
	c2.7-1.8,5.6-3.6,8.9-5.6c0.7-0.4,5.4-3.2,6.2-3.8c1.3-0.8,2.6-1.8,4.3-3.1c0.8-0.6,3.9-3.1,4.6-3.7
	C587.4,372.7,593.2,369.8,600,369.5L600,369.5z M600,214.9v1c-1.8-0.2-4.3,0.2-7.8,1.6c-10,3.8-13.8,5.1-19.2,6.8
	c-1.8,0.6-2.6,0.8-3.9,1.2c-1.5,0.5-3.2,0.8-6.7,1.2c-0.9,0.1-1.8,0.2-2.6,0.3c-7.8,0.9-11.3,2.5-11.3,6.1c0,4.4,2.9,13.2,8,25.8
	c1,2.5,1.7,5,2.3,7.6c0.3,1.2,0.6,2.3,0.8,3.5c1.9,7.6,3.2,10.7,5.6,11.7c2.2,0.9,4.7,0.6,7.5-0.7c3.5-1.7,7.2-4.9,11.2-9.5
	c1.5-1.7,3-3.5,4.6-5.6l3.2-4.1c2.6-3.2,6.1-12.2,8.4-20.2v3.4c-2.3,7.2-5.3,14.5-7.6,17.4c-0.4,0.5-2.7,3.5-3.2,4.1
	c-1.6,2.1-3.1,3.9-4.6,5.6c-4.1,4.6-7.9,7.9-11.5,9.7c-3,1.4-5.8,1.8-8.3,0.7c-2.8-1.1-4.2-4.3-6.2-12.4c-0.3-1.2-0.6-2.3-0.8-3.5
	c-0.8-3.2-1.5-5.5-2.3-7.5c-5.1-12.8-8-21.6-8-26.2c0-4.4,3.8-6.1,12.2-7.1c0.9-0.1,1.8-0.2,2.7-0.3c3.5-0.4,5.2-0.6,6.5-1.1
	c1.3-0.4,2.1-0.7,3.9-1.3c5.3-1.7,9.1-3,19.1-6.7C595.3,215.2,598,214.7,600,214.9L600,214.9z M0,292c10.1-11.3,18.1-23.2,23.1-35.4
	c3.3-8.1,6.1-16.1,10.8-30.6l1.6-4.8c6.5-19.9,10.1-29.8,14.8-39.6c6.1-12.7,12.5-21.2,20.3-25.5c6.7-3.8,10.2-7.9,12.2-13.1
	c0.8-2.1,1.4-4.3,1.9-6.6c1.2-5.2,2.1-7.6,3.9-10.4c2.4-3.6,6.3-6.5,12.1-9c15.8-6.6,16.7-7,18-9c0.7-1,0.8-2.2,0.7-4.5
	c0-0.7-0.2-3.8-0.2-4c-0.1-1.8-0.2-3.7-0.2-5.5c0-10,0.2-11.4,2.4-13.2c0.5-0.4,1.1-0.8,2.1-1.3c0.3-0.1,2.2-1.1,2.8-1.5
	c3.2-1.7,6.2-3.7,9.1-5.9c2.1-1.5,2.6-2.1,8-7.9c3.8-4.1,6.2-6.4,9-8.1c3.6-2.3,7.2-3.1,10.9-2.1c4.4,1.2,10.8,2,18.8,2.5
	C189,56.9,195,57,204,57c4.9,0,9,0.5,15.4,1.6c7.8,1.3,9.3,1.5,12.4,1.5c4.1,0,7.4-0.9,10.7-3c5.1-3.2,8.1-4.7,11.2-5.2
	c3.6-0.6,4.8-0.5,16.6,2.1c17.3,3.7,30.9,1.4,41.1-9.7c5.1-5.5,5.5-8.9,3.5-14.8c-0.8-2.4-1-3.1-1.2-4.3c-0.3-2.5,0.5-4.7,2.7-6.9
	c2.6-2.6,4.7-9.2,6.2-18.3h2c-1.6,9.7-3.8,16.6-6.8,19.7c-1.8,1.8-2.4,3.4-2.1,5.3c0.1,1,0.3,1.6,1.1,3.9c2.2,6.5,1.8,10.7-3.9,16.8
	c-10.8,11.7-25.1,14.1-43,10.3c-11.4-2.5-12.5-2.6-15.8-2.1c-2.8,0.5-5.6,1.8-10.5,4.9c-3.5,2.2-7.6,3.4-11.8,3.3
	c-3.3,0-4.8-0.2-12.7-1.6c-6.3-1.1-10.3-1.5-15-1.5c-9.1,0-15.1-0.1-22.1-0.5c-8.1-0.5-14.6-1.3-19.2-2.5
	c-5.6-1.5-10.2,1.4-17.9,9.7c-5.5,5.9-6.1,6.5-8.3,8.2c-3,2.3-6.1,4.3-9.4,6c-0.7,0.4-2.6,1.3-2.8,1.5c-0.8,0.4-1.3,0.8-1.8,1.1
	c-1.5,1.2-1.6,2.4-1.6,11.6c0,1.8,0.1,3.5,0.2,5.4c0,0.2,0.2,3.3,0.2,4c0.1,2.8-0.1,4.3-1.1,5.7c-1.7,2.5-2.3,2.8-19,9.7
	c-5.5,2.3-9,5-11.2,8.2c-1.7,2.5-2.5,4.7-3.6,9.7c-0.8,3.5-1.2,4.9-1.9,6.8c-2.2,5.7-6.1,10.2-13.1,14.2
	c-7.3,4.1-13.5,12.3-19.5,24.7c-4.6,9.6-8.2,19.5-14.7,39.3l-1.6,4.8c-4.8,14.5-7.5,22.5-10.9,30.7C19.6,270.4,11,283,0,295V292
	L0,292z M0,370v-0.5h1c6.3,0,7.5,5.2,4.6,13.4c-1.5,4-3.3,7.7-5.6,11.3v-1.9c1.8-3.1,3.4-6.3,4.7-9.7c2.7-7.6,1.7-12-3.7-12
	c-0.3,0-0.7,0-1,0V324c4.6-2.7,9.2-5.5,13.7-8.3c13.7-9.5,29.8-37.6,29.8-53.6c0-18.1,21.6-72.6,32.2-79.4
	c12.7-8.1,32.2-28,35.8-37.8c1.9-5.3,5.5-7.3,14.4-9.4c6.1-1.4,8.6-2.4,10.7-4.8c1.5-1.7,2.7-4.8,4.3-10.3c0.2-0.8,1.9-6.7,2.4-8.5
	c3.6-12.1,7.3-18.5,13.5-20.4c2.5-0.8,3-1,9.7-3.7c7.5-3,12-4.4,17.1-4.9c6.8-0.7,13.1,0.8,19.6,4.7c5.4,3.3,12.2,4.7,20.2,4.6
	c6-0.1,12.2-1.1,19.8-2.8c1.8-0.4,7.4-1.7,8.3-1.9c2.7-0.6,4.3-0.9,5.5-0.9c5,0,8.9-0.1,14.2-0.3c7.9-0.3,15.6-0.9,22.8-1.9
	c8.5-1.1,15.9-2.7,21.9-4.8c18.9-6.6,32.6-18.3,33.7-27.6c0.3-2.6,0.4-3,2.8-11.1c2.3-8,3.2-12.9,2.7-18.2c-0.2-2.2-0.7-4.4-1.5-6.4
	c-1.5-3.9-2.6-9.4-3.4-16.2h0.9c0.8,6.5,1.9,11.7,3.5,15.8c0.8,2.1,1.3,4.4,1.5,6.7c0.5,5.5-0.4,10.5-2.8,18.6s-2.5,8.5-2.7,11
	c-1.1,9.8-15.1,21.7-34.3,28.4c-6.1,2.1-13.5,3.7-22.1,4.9c-7.2,1-14.9,1.6-22.8,1.9c-5.3,0.2-9.3,0.3-14.3,0.3
	c-1,0-2.6,0.3-5.3,0.9c-0.9,0.2-6.4,1.5-8.3,1.9c-7.7,1.7-13.9,2.7-20,2.8c-8.1,0.2-15.1-1.3-20.7-4.7c-6.2-3.8-12.4-5.2-18.9-4.5
	c-5,0.5-9.4,1.9-16.8,4.9c-6.8,2.7-7.3,2.9-9.8,3.7c-5.7,1.8-9.3,8-12.8,19.7c-0.5,1.8-2.2,7.7-2.4,8.5c-1.7,5.7-2.9,8.8-4.5,10.7
	c-2.2,2.6-4.8,3.6-12,5.3c-7.8,1.8-11.1,3.7-12.9,8.5c-3.7,10-23.3,30.1-36.2,38.3c-10.6,6.3-32,60.5-32,78.3
	c0,16.3-16.3,44.8-30.2,54.4c-2.1,1.5-8.2,5.1-14.3,8.7v-1.2L0,370L0,370z M0,196.3v-1.1c7.4-3.8,14.6-10.2,21.8-19
	c3.8-4.6,14.2-18.8,15.8-20.6c1.8-2,4.1-4,7.4-6.4c1.1-0.8,4.9-3.6,5.5-4c9.4-6.9,14-12,16-19.4c0.8-3,1.5-6.8,2.5-12.3
	c0.2-1.4,2-12.5,2.6-15.8c2.8-16.7,5.7-26.7,10-32c10.8-13.2,19.9-27.5,19.9-32.7c0-2.5,0.3-3.4,6.1-15.7c0.7-1.5,1.3-2.7,1.8-3.9
	c2.5-5.8,3.9-10,4.1-13.4h1c-0.2,3.5-1.7,7.9-4.2,13.8c-0.5,1.2-1.1,2.4-1.8,3.9c-5.5,12-5.9,13-5.9,15.3c0,5.5-9.1,19.8-20.1,33.3
	c-4.2,5.1-7,15.1-9.9,31.6c-0.6,3.3-2.3,14.3-2.6,15.8c-0.9,5.6-1.7,9.4-2.5,12.4c-2.1,7.7-6.8,12.9-16.3,19.9l-5.5,4
	c-3.3,2.4-5.5,4.3-7.3,6.3c-1.5,1.7-11.9,15.9-15.8,20.5C15.1,185.9,7.7,192.5,0,196.3L0,196.3z M0,558.1v-4.3
	c0.5,2.4,1,4.3,1.6,6.2c2,6,4.6,8.3,8.2,6.6c19-8.9,33.7-24.1,33.7-39.5c0-16.2,6.4-32,17.1-46.3c1.9-2.5,3.7-4.4,5.5-6
	c0.7-0.6,1.4-1.2,2.3-1.8l2-1.4c3.7-2.7,5.3-5.3,7.1-12.6c0.8-3.1,1.4-5,4.2-13.3l0.6-1.9c3.2-9.6,4.6-15,4.2-18.6
	c-0.5-4.4-3.8-5.2-11.3-1.6c-3,1.4-6,2.7-9.2,3.7c-13.9,4.7-27,5.8-42.7,5.4h-2h-1.5c-5.2,0-10.3,1-15.1,3c-1.8,0.7-3.4,1.7-4.9,2.9
	v-1.3c1.4-1,2.9-1.9,4.6-2.6c5.4-2.2,11.1-3.2,16.9-3h2c15.6,0.4,28.6-0.8,42.3-5.4c3.1-1,6.1-2.3,9-3.6c8-3.8,12.2-2.9,12.7,2.4
	c0.4,3.9-0.9,9.3-4.2,19.1l-0.6,1.9c-2.8,8.2-3.4,10.1-4.2,13.2c-1.8,7.5-3.6,10.3-7.5,13.2l-2,1.4c-0.8,0.6-1.5,1.1-2.3,1.8
	c-2,1.7-3.8,3.7-5.4,5.8C50.8,495.4,44.5,511,44.5,527c0,15.9-15,31.5-34.3,40.5c-4.3,2-7.4-0.7-9.6-7.2
	C0.4,559.6,0.2,558.9,0,558.1L0,558.1z M0,496v-2.5l1.5,3.3c2.1,4.8,3.5,10.3,4.3,16.8c0.7,5.3,0.8,9.3,1,18.5
	c0.2,9.3,0.5,12.8,1.6,15c1.3,2.6,3.7,2.3,8.3-1.5c17.1-14.3,21.8-22.9,21.8-38.6c0-7.2,1.1-12.4,3.7-17.7
	c2.3-4.7,3.7-6.6,13.4-19.6c2.3-3.1,4.8-6.1,7.6-8.8c1.1-1.1,2.3-2.1,3.5-3.1c0.4-0.3,0.6-0.5,0.9-0.7c1.1-0.9,2-2,2.6-3.3
	c0.9-1.9,1.7-3.9,2.3-5.9l0.4-1.2l0.4-1.1c0.3-0.9,0.5-1.5,0.7-2.2c0.4-1.5,0.7-2.7,0.9-3.7c0.4-2.2,0.1-3.5-0.8-4.1
	c-2.3-1.6-9.3-0.2-23.8,4.9c-9.5,3.4-16.1,4.2-27.9,4.3c-7.7,0.1-10.4,0.4-13.3,2.1c-3.5,2.1-5.8,6.4-7.6,14.3c-0.5,2.2-1,4.2-1.5,6
	v-4l0.5-2.2c1.8-8.1,4.3-12.6,8-14.9c3-1.9,5.9-2.2,13.8-2.3c11.6-0.1,18.1-0.8,27.5-4.2c14.9-5.3,22-6.7,24.7-4.8
	c1.4,0.9,1.7,2.6,1.3,5.1c-0.2,1.3-0.6,2.5-0.9,3.8l-0.7,2.2l-0.4,1.1l-0.4,1.2c-0.6,2.1-1.4,4.1-2.3,6.1c-0.8,1.5-1.6,2.5-2.9,3.6
	l-0.9,0.8l-1,0.8c-0.9,0.7-1.7,1.4-2.5,2.2c-2.7,2.7-5.2,5.6-7.5,8.7c-9.7,12.9-11.1,14.9-13.3,19.5c-2.5,5.1-3.6,10.2-3.6,17.2
	c0,16-4.8,24.9-22.2,39.4c-5,4.2-8.2,4.5-9.8,1.2c-1.2-2.5-1.5-5.9-1.7-15.5c-0.2-9.2-0.4-13.2-1-18.4c-0.8-6.3-2.1-11.8-4.2-16.5
	L0,496L0,496z M379.3,0h1l1.5,5.3c3.3,11.6,4.9,19.3,5.3,27.8c0.5,11-1.5,21.3-6.6,31.2c-7.8,15.1-20.5,26.5-36.2,34.1
	c-12.4,6-26.1,9.2-36.2,9.2c-6.8,0-17.2,1.4-37.3,4.6l-2.3,0.4c-24.5,4-31.6,5-37.5,5c-3.5,0-4.1-0.1-19.5-2.8
	c-3.6-0.6-6.3-1.1-9-1.5c-20.2-3-31-1.2-32,7.9c-0.1,0.8-0.2,1.7-0.3,2.8l-0.3,2.7c-1.1,10.9-2,15.7-4.3,20
	c-2.9,5.3-7.8,7.9-15.6,7.9c-10.2,0-12.9,0.6-15.5,3.2c0.5-0.5-5,5.9-8.2,8.7c-2.8,2.5-14.3,12.6-15.8,13.8
	c-2.2,1.9-4.4,3.9-6.5,5.9c-7,6.5-11.8,11.8-14.6,16.1c-5.9,9.3-10.5,18-11.7,24.1c-1.7,8.3,3.7,9.5,19,1.2
	c14.6-7.9,29.4-15.2,44.5-21.9c3.5-1.6,14-6.2,15.7-6.9c5.1-2.3,8.3-3.8,10.8-5.1l1.9-1.1l2.2-1.2c1.8-0.9,3.4-1.8,5-2.6
	c18.1-8.7,34.5-10.5,50.3-1.2c22.9,13.3,38.3,37,38.3,56.4c0,19.1-0.7,25.1-5.2,33.2c-1.4,2.5-3.1,4.9-4.9,7.1
	c-6.5,7.8-11.8,16.2-12.8,21.3c-1.2,6.3,4.7,7,20.2,0c13.3-6.1,22.4-15,28.5-26.3c2.5-4.8,4.6-9.9,6.1-15.1c0.9-3,3.2-11.6,3.4-12.5
	c0.4-1.7,1-3.3,1.8-4.8c7.5-14.9,21.1-30.5,36.3-37.2c7.6-3.4,13-9.6,19.4-20.8c0.8-1.5,4.3-7.6,5.1-9.2c3.5-6.1,6.2-9.7,9.4-12
	c10.1-7.4,28.7-11.1,50.3-11.1c7.5,0,16.5-1.2,27.5-3.6c5-1.1,10-2.3,15-3.5c-1.3,0.3,15.5-4,19.4-4.9c14.1-3.3,41.1-5,64.1-5
	c17.4,0,27.8-9.2,38.5-38.7c6.6-18.2,6.6-26.4,2.7-34.3l-1.2-2.4c-1-1.9-1.5-4-1.5-6.1c0-4,0-4,2.5-24.6c0.5-3.7,0.8-6.7,1.1-9.6
	c0.9-8.4,1.4-15.2,1.4-20.8c0-0.9,0-1.9,0-3h1c0,1.1,0,2.1,0,3c0,5.6-0.5,12.4-1.4,20.9c-0.3,2.9-0.7,5.9-1.1,9.7
	C588.5,54,588.5,54,588.5,58c0,2,0.5,3.6,1.5,5.7c0.2,0.5,1.2,2.3,1.2,2.4c4.1,8.2,4.1,16.7-2.7,35.1
	c-10.8,29.8-21.6,39.3-39.5,39.3c-23,0-49.8,1.7-63.9,5c-3.9,0.9-20.7,5.2-19.4,4.9c-5,1.3-10,2.4-15,3.5c-11,2.4-20.1,3.6-27.7,3.6
	c-21.4,0-39.8,3.7-49.7,10.9c-3,2.2-5.6,5.7-9.1,11.7c-0.9,1.5-4.3,7.7-5.1,9.2c-6.5,11.3-12,17.7-19.9,21.2
	c-14.9,6.6-28.4,22-35.8,36.8c-0.7,1.5-1.3,3.1-1.7,4.7c-0.2,0.8-2.5,9.5-3.4,12.5c-1.5,5.3-3.6,10.4-6.2,15.3
	c-6.2,11.6-15.4,20.6-29,26.8c-16.1,7.4-23,6.5-21.6-1c1-5.3,6.4-13.8,13-21.7c1.8-2.2,3.4-4.5,4.8-7c4.4-7.9,5.1-13.8,5.1-32.7
	c0-19-15.2-42.4-37.7-55.6c-15.6-9.1-31.6-7.4-49.4,1.2c-2.4,1.2-4.8,2.4-7.1,3.7l-1.9,1.1c-3.5,1.9-7.2,3.6-10.9,5.2
	c-1.6,0.7-12.2,5.4-15.7,6.9c-15.1,6.7-29.9,14-44.5,21.9c-15.9,8.7-22.4,7.2-20.5-2.3c1.2-6.2,5.8-15,11.8-24.4
	c2.8-4.5,7.7-9.8,14.8-16.3c2-1.9,4.1-3.8,6.6-5.9c1.5-1.3,13-11.3,15.8-13.8c3.1-2.8,8.6-9.1,8.1-8.7c2.8-2.8,5.8-3.5,16.2-3.5
	c7.5,0,12-2.4,14.8-7.4c2.2-4.1,3.1-8.8,4.2-19.6l0.3-2.7l0.3-2.8c0.6-5.4,4.5-8.5,11.2-9.6c5.4-0.9,12.5-0.5,21.9,0.9
	c2.7,0.4,5.5,0.9,9,1.5c15.3,2.7,16,2.8,19.4,2.8c5.7,0,12.9-1,37.3-5l2.3-0.4c20.1-3.3,30.5-4.6,37.4-4.6c10,0,23.5-3.2,35.8-9.1
	C359.5,90.2,372,79,379.7,64c5-9.8,7-19.8,6.5-30.7c-0.4-8.4-2-16.1-5.2-27.6L379.3,0z M392.9,0h1c0.8,3.9,1.9,8.7,3.5,14.9
	c3.6,14.1,3.1,27-0.8,38.8c-2.4,7.6-6.3,14.6-11.4,20.7c-5.8,6.9-12.3,13.2-19.3,18.8c-11.3,9-23.4,15.5-36,18.4
	c-7.5,1.7-15,3-22.6,4.1c-3.2,0.4-6.4,0.8-10.3,1.3l-9.4,1.1c-11.5,1.4-17.5,2.6-21.6,4.5c-9.3,4.2-28.4,6-49.2,6
	c-1.4,0-2.8-0.1-4.3-0.4c-2.6-0.4-5-1-9.1-2.3c-7.3-2.2-9.6-2.8-12.6-2.6c-3.9,0.2-6.6,2.3-8.5,6.9c-1.9,4.7-2.4,7.5-3.3,15
	c-1.1,9-2.9,12.1-10,14.3c-2.3,0.7-4.6,1.6-6.8,2.7c-0.6,0.3-1.2,0.6-1.8,1l-1.3,0.9c-1.9,1.1-3.9,1.5-9.3,1.5
	c-3.2,0-8.8-0.6-9.5-0.4c-1.2,0.3-0.8-0.1-7.1,6.2c-1.5,1.5-3.5,3.2-6.3,5.4c-1.5,1.2-7.2,5.4-7.9,6c-5,3.8-8.3,6.6-11.1,9.4
	c-4.9,5-6.8,9.1-5.6,12.7c1.3,3.7,4.1,4.4,8.9,2.8c2.7-1,5.3-2.1,7.8-3.5c1.5-0.8,7.8-4.1,9.4-5c4-2.1,8.1-4,12.3-5.7
	c3.7-1.5,7.4-3.1,11-4.8c2-1,10.7-5.2,13-6.2c4.4-2.1,8.1-3.8,11.6-5.3c17.1-7.3,29.3-9.9,37.7-6.6l5.4,2.1c2.3,0.9,4.2,1.6,6,2.4
	c4.4,1.8,8.8,3.8,13.1,6c18.3,9.6,30.4,22.1,34.8,39.9c7,27.9,3.6,45.5-8.1,62.4c-4,5.8-3.5,9.2,0.1,9c4.1-0.3,10.2-5,15.1-12.5
	c3.1-4.8,5.1-10.5,8-21.5l1.7-6.4c0.7-2.5,1.2-4.5,1.8-6.5c4.9-16.6,11-27.3,21.6-34.8c7.1-5.1,23.7-15.5,25.5-16.8
	c6.7-4.8,10.5-9.4,14.3-18c7.7-17.4,21.1-24.3,44.5-24.3c9.4,0,17.9-1.1,29.5-3.5c2.1-0.4,4.1-0.8,6.2-1.3c2.4-0.5,4.1-0.8,5.7-1.1
	c4-0.7,7-1.1,9.6-1.1c4.4,0,9.4-1,31.4-6l3-0.7c16.3-3.7,25.6-5.4,31.7-5.4c1.5,0,2.4,0,6.4,0.1c7.8,0.1,12.3,0.1,17.3-0.2
	c16.4-1.1,26.7-5.4,29.8-14.6c1-3,2.2-6,3.5-8.8c-0.2,0.3,2.3-5,2.9-6.4c5.4-12.3,5.6-21.9-1.4-39.4c-2.6-6.7-4.4-13.6-5.3-20.7
	c-1.6-12-1.4-23.1,0.1-40.3l0.2-2.1h1l-0.2,2.2c-1.5,17.1-1.7,28.2-0.1,40.1c0.9,7,2.6,13.9,5.2,20.5c7.1,17.8,6.9,27.7,1.4,40.2
	c-0.6,1.4-3.1,6.7-2.9,6.4c-1.3,2.8-2.5,5.8-3.5,8.7c-3.2,9.7-13.9,14.1-30.7,15.2c-5.1,0.3-9.6,0.4-17.4,0.2
	c-4-0.1-4.8-0.1-6.4-0.1c-5.9,0-15.2,1.7-31.4,5.3l-3,0.7c-22.2,5-27,6-31.6,6c-2.5,0-5.5,0.4-9.4,1.1c-1.6,0.3-3.3,0.6-5.6,1.1
	c-2.1,0.4-4.1,0.9-6.2,1.3c-11.7,2.4-20.3,3.5-29.7,3.5c-23,0-36,6.7-43.5,23.7c-3.9,8.8-7.8,13.6-14.7,18.5
	c-1.8,1.3-18.4,11.7-25.5,16.8c-10.3,7.3-16.3,17.9-21.2,34.2c-0.6,2-1.1,4-1.8,6.5l-1.7,6.4c-3,11.2-5,16.9-8.2,21.8
	c-5,7.8-11.4,12.7-15.9,13c-4.7,0.3-5.3-4.2-0.9-10.5c11.5-16.6,14.8-34,7.9-61.6c-4.4-17.4-16.2-29.7-34.3-39.2c-4-2.1-8.2-4-13-6
	c-1.8-0.8-3.7-1.5-6-2.4l-5.4-2.1c-8-3.1-20-0.6-36.9,6.6c-3.5,1.5-7.2,3.2-11.6,5.3l-13,6.2c-4.7,2.2-8.2,3.8-11.1,4.9
	c-4.2,1.6-8.3,3.5-12.2,5.6c-1.6,0.8-7.9,4.2-9.4,5c-2.5,1.4-5.2,2.6-7.9,3.5c-5.3,1.8-8.6,0.9-10.2-3.4c-1.5-4,0.7-8.5,5.8-13.7
	c2.8-2.8,6.2-5.7,11.2-9.5c0.8-0.6,6.4-4.9,7.9-6c2.2-1.6,4.3-3.4,6.2-5.3c6.7-6.7,6.1-6.2,7.6-6.5c0.9-0.2,6.7,0.4,9.7,0.4
	c5.2,0,7-0.3,8.7-1.4l1.3-0.8c0.6-0.4,1.2-0.7,1.8-1.1c2.2-1.1,4.6-2,7-2.7c6.6-2,8.2-4.8,9.3-13.5c0.9-7.5,1.5-10.5,3.4-15.2
	c2-4.9,5-7.3,9.3-7.5c3.2-0.2,5.5,0.3,13,2.6c2.9,1,6,1.7,9,2.3c1.4,0.2,2.8,0.3,4.1,0.3c20.7,0,39.7-1.8,48.8-6
	c4.3-2,10.3-3.1,21.9-4.5l9.4-1.1c3.9-0.5,7.1-0.9,10.3-1.3c8.2-1.1,15.4-2.4,22.5-4.1c12.4-2.9,24.3-9.3,35.5-18.2
	c7-5.6,13.4-11.8,19.2-18.6c5-6,8.8-12.9,11.1-20.3c3.8-11.6,4.3-24.4,0.8-38.2C395.2,10.1,394,5.1,392.9,0L392.9,0z M506.7,0h1.3
	c-0.5,0.7-0.9,1.2-1.2,1.5c-4,5-6.9,7.9-9.8,9.6c-1.5,0.9-3.2,1.4-5,1.4c-2.4,0-4.2,0.7-6.7,2.2l-2.6,1.7c-4.4,2.8-8,4.1-13.6,4.1
	s-10-1.3-16.1-4c-0.8-0.3-1.5-0.7-2.3-1.1l-2.2-1c-1.6-0.7-2.9-1.2-4.2-1.5c-1.1-0.3-2.2-0.4-3.3-0.4c-2.3,0-4.3-0.7-11-3.4
	l-1.6-0.6c-5-2-8.1-2.8-10.5-2.7c-2.9,0.2-4.4,2-4.4,6.1c0,20.8-5.2,50.4-12.1,57.3c-7.6,7.6-26.5,23.7-34.1,29.1
	c-13.2,9.4-31.2,20.2-44.1,25.1c-4.3,1.6-8.8,3-13.3,4c-3.3,0.8-6.6,1.4-11.3,2.2c-0.5,0.1-8.8,1.5-11.5,2c-4.9,0.9-9.3,1.7-14,2.8
	c-20.6,4.5-25.1,5-38.1,5c-2.5,0-2.9-0.1-14.1-2c-2.4-0.4-4.3-0.7-6.1-1c-8.1-1.2-13.8-1.4-17.6-0.2c-4.5,1.4-5.9,4.6-3.7,10.5
	c2,5.3,4.8,8.6,8.8,10.7c3.3,1.7,6.8,2.6,13.8,3.7c9.4,1.5,10.9,1.8,15.5,2.9c6.5,1.6,12.8,4.1,18.6,7.4c8.3,4.6,14.6,11.5,20,20.9
	c2.7,4.7,9.5,19.3,10.5,21.2c3.4,5.9,6.3,6.6,10.9,2c5-4.9,10.4-8.4,21.1-14.1c0.5-0.3,2.1-1.1,2.1-1.1c8-4.2,11.9-6.5,15.9-9.5
	c5.1-3.9,8.7-8.1,10.8-13.1c8.5-20.2,20.8-33.3,32.5-33.3h5.5c10.5,0.1,17.4,0,24.9-0.3c13.7-0.6,23.8-2.1,29.4-4.7
	c5.9-2.7,13.4-5.5,24.2-9c3.5-1.1,6.3-2.1,12.7-4.1c7.7-2.4,11.1-3.5,15.2-4.9c3.8-1.3,7.5-2.5,11.3-3.7c3.7-1.2,6-2,8-2.8
	c2.3-0.8,4.5-1.8,6.7-2.9c1.9-1,3.8-2.1,5.9-3.5c3.5-2.3,6.2-3.1,12-4.1l1.2-0.2c5.7-1,9-2.3,12.8-5.6c7.8-7,8.6-23.2,3.8-44.5
	c-1.7-7.7-2.1-19.3-1.6-35.5c0.2-6.2,0.5-12.4,0.8-18.6h1l-0.2,3.1c-0.3,6.4-0.5,11-0.7,15.6c-0.5,16.1-0.1,27.7,1.6,35.2
	c4.8,21.7,4,38.2-4.2,45.5c-3.9,3.5-7.4,4.8-13.2,5.9l-1.2,0.2c-5.8,1-8.3,1.8-11.7,4c-1.9,1.3-3.9,2.5-6,3.6
	c-2.2,1.1-4.5,2.1-6.8,3c-2.1,0.8-4.4,1.6-8.1,2.8c-3.8,1.2-7.5,2.5-11.3,3.7c-4.1,1.4-7.5,2.5-15.2,4.9c-6.4,2-9.2,3-12.7,4.1
	c-10.7,3.5-18.3,6.3-24.1,9c-5.8,2.7-16,4.1-29.8,4.8c-7.6,0.3-14.4,0.4-25,0.3h-5.5c-11.2,0-23.2,12.8-31.5,32.7
	c-2.2,5.2-5.8,9.5-11.1,13.5c-4,3.1-8,5.4-16,9.6l-2.1,1.1c-10.7,5.6-16,9-20.9,13.9c-5.1,5.1-8.8,4.1-12.5-2.2
	c-1.1-1.9-7.9-16.5-10.5-21.2c-5.3-9.2-11.5-16-19.6-20.5c-5.8-3.2-12-5.7-18.4-7.3c-4.5-1.2-6-1.4-15.4-2.9
	c-7.2-1.1-10.7-2-14.1-3.8c-4.2-2.3-7.2-5.8-9.3-11.3c-2.4-6.4-0.8-10.3,4.3-11.8c4-1.2,9.8-1.1,18.1,0.2c1.8,0.3,3.7,0.6,6.2,1
	c11,1.9,11.5,2,13.9,2c13,0,17.4-0.5,37.9-5c4.7-1,9.2-1.9,14-2.8c2.7-0.5,11-1.9,11.5-2c4.6-0.8,8-1.5,11.2-2.2
	c4.5-1.1,8.8-2.3,13.2-4c12.8-4.8,30.8-15.6,43.9-24.9c7.5-5.3,26.4-21.4,33.9-28.9c6.6-6.7,11.8-36.2,11.8-56.6
	c0-4.6,1.9-6.9,5.4-7.2c2.6-0.2,5.8,0.7,11,2.7l1.6,0.6c6.5,2.6,8.5,3.3,10.6,3.3c1.1,0,2.3,0.2,3.5,0.5c1.3,0.3,2.7,0.8,4.3,1.5
	c1.1,0.5,2.2,1,3.3,1.5l1.1,0.5c6,2.7,10.2,3.9,15.7,3.9c5.4,0,8.9-1.2,13.1-3.9c0.2-0.1,2.1-1.4,2.7-1.7c2.6-1.6,4.6-2.4,7.2-2.4
	c1.5,0,2.9-0.4,4.5-1.3c2.8-1.6,5.7-4.4,9.5-9.3L506.7,0L506.7,0z M324.5,600h-2c0.5-3,0.9-6.2,1.3-9.7c0.4-4.1,0.8-8.3,1-12.2
	c0.1-1.4,0.1-2.7-0.4-7.3c-0.5-1.9-0.9-4.1-1.4-6.5c-2-11.3-2.7-22.9-1.1-33.8c0.8-6.2,2.5-12.3,5.2-18c3.2-6.7,7.5-12.8,12.6-18.2
	c3.4-3.6,5.5-5.5,11.8-10.8c4.5-3.8,6.4-5.6,7.5-7.5c0.6-1.1,1-2.1,1-3.1c0-1.8,0-1.7-0.8-9.2c-0.4-3.7-0.6-6.3-0.7-9
	c-0.5-12.1,1.6-19.6,8.1-21.8c15.9-5.3,25.9-12.1,33.5-25.5c9.5-16.9,25.7-31.5,35.9-31.5c12.4,0,20-2,29.4-8.8
	c6.8-4.9,9.5-6.6,12.5-7.5c2.2-0.6,3.8-0.7,9.1-0.7c1.9,0,3.5-0.8,5.6-2.6c1.1-1,5.1-5.1,5.6-5.6c6-5.9,12-8.8,20.8-8.8
	c2.5,0,4.5,0,7.3,0.1c7.5,0.2,8.9,0.2,11.3-0.7c3-1.1,5.5-3,14.8-11.2c8-7.1,10.7-8.9,22.9-16.5c1.4-0.9,2.6-1.6,3.7-2.4
	c3.4-2.2,6.5-4.7,9.5-7.5c4.1-3.9,8-7.9,11.6-11.9v3c-3.3,3.6-6.7,7-10.3,10.4c-3.2,3-6.2,5.4-9.7,7.7c-1.1,0.8-2.3,1.5-3.8,2.4
	c-12,7.5-14.7,9.3-22.6,16.3c-9.5,8.4-12,10.3-15.4,11.5c-2.7,1-4.2,1.1-12,0.8c-2.8-0.1-4.8-0.1-7.3-0.1c-8.3,0-13.8,2.7-19.4,8.2
	c-0.4,0.4-4.5,4.6-5.7,5.7c-2.4,2.1-4.5,3.1-6.9,3.1c-5.1,0-6.6,0.1-8.6,0.7c-2.7,0.8-5.3,2.4-11.9,7.1c-9.8,7.1-17.9,9.2-30.6,9.2
	c-9.2,0-25,14.2-34.1,30.5c-7.8,13.9-18.2,21-34.5,26.5c-5.3,1.8-7.2,8.5-6.8,19.8c0.1,2.6,0.3,5.2,0.7,8.8c0.8,7.6,0.8,7.6,0.8,9.4
	c0,1.4-0.4,2.7-1.2,4.1c-1.3,2.2-3.3,4.1-7.9,8c-6.3,5.2-8.4,7.1-11.7,10.6c-5,5.2-9.1,11.2-12.3,17.7c-2.6,5.5-4.2,11.4-5,17.4
	c-1.5,10.7-0.9,22.1,1.1,33.2c0.4,2.4,0.9,4.5,1.3,6.4c0.2,0.7,0.3,1.3,0.6,4.1c-0.2,5.4-0.6,10.8-1.2,16.1
	C325.4,593.9,325,597.1,324.5,600L324.5,600z M311.1,600h-1l0.1-0.3c3.1-7.2,4.3-11.8,4.3-18.7c0-3.6-0.1-4.9-0.8-15.7
	c-0.8-12-1-19.6-0.5-28.3c0.6-11.5,2.4-22.1,5.8-32.2c1.3-3.8,2.8-7.5,4.5-11.1c3.5-7.1,6.8-12.4,10.4-16.6c1.4-1.6,2.8-3.1,4.4-4.6
	c0.4-0.4,3-2.8,3.7-3.5c5.7-5.6,7.5-11.5,7.5-29.2c0-18.8,2.9-23.8,15.8-28.2c1.1-0.4,1.9-0.7,2.8-1c2.1-0.8,4.1-1.7,6.1-2.7
	c5-2.6,9.6-6.2,14.4-11.4c25.5-27.6,37.1-35.2,56.4-35.2c8.3,0,14.5-2,22-6.3c1.8-1,13.8-8.8,18.2-11.3c2.8-1.6,5.7-3,8.6-4.4
	c7.9-3.6,14-4.5,26.6-4.8c7.5-0.2,10.7-0.5,14.3-1.6c4.5-1.4,8.1-4,10.9-8.4c2.2-3.4,6.8-7.1,14.7-12.1c1.6-1,3.3-2,5.7-3.5
	c9.5-5.9,11.6-7.1,14.8-9.6c5.3-4,9.3-8.4,13.7-14.8c1.9-2.9,3.8-5.8,5.6-8.8v1.9c-2,3.2-3.4,5.4-4.8,7.4c-4.4,6.5-8.5,10.9-13.9,15
	c-3.3,2.5-5.3,3.8-14.9,9.6c-1.9,1.2-3.8,2.3-5.6,3.5c-7.7,4.9-12.3,8.5-14.4,11.8c-3,4.6-6.7,7.4-11.5,8.9
	c-3.7,1.1-6.9,1.4-14.5,1.6c-12.5,0.3-18.4,1.2-26.2,4.7c-2.9,1.3-5.8,2.8-8.6,4.4c-4.3,2.4-16.3,10.2-18.1,11.3
	c-7.6,4.4-14,6.4-22.5,6.4c-18.9,0-30.3,7.4-55.6,34.8c-4.9,5.3-9.7,9-14.7,11.6c-2,1-4,1.9-6.2,2.8c-0.9,0.3-1.7,0.6-5.4,1.9
	c-5.1,1.8-7.4,3.3-9.3,6.4c-2.2,3.8-3.3,9.9-3.3,20c0,17.9-1.9,24.1-7.8,29.9c-0.7,0.7-3.3,3.1-3.7,3.5c-1.5,1.4-2.9,2.9-4.3,4.5
	c-3.5,4.1-6.9,9.3-10.3,16.4c-1.7,3.6-3.2,7.2-4.5,11c-3.4,10-5.2,20.5-5.8,31.9c-0.4,8.6-0.2,16.2,0.5,28.2
	c0.7,10.8,0.8,12.1,0.8,15.7C315.5,587.3,314.5,591.9,311.1,600L311.1,600z M336.2,600h-1c0-4.7,0.1-9.4,0.3-15
	c0.3-6.4-0.4-11.8-2.5-24.4l-0.3-1.9c-2.1-12.5-2.8-19.3-2-26.5c1-9.3,4.8-16.7,12-22.7c22-18.2,29.8-30.2,29.8-44.6
	c0-2.6-0.3-4.8-1-8.2c-1-4.8-1.1-5.7-1-7.6c0.2-2.6,1.3-4.7,3.6-6.7c2.7-2.4,7-4.6,13.7-7c9.7-3.5,15.5-9.2,24.3-21.6l1.8-2.5
	c4.5-6.3,7.1-9.6,10.4-12.8c4.3-4.1,9-6.8,14.5-8.2c13.3-3.3,20.4-5.5,25.3-7.6c1.8-0.8,3.6-1.7,5.3-2.7c1.1-0.6,1.8-1,4.2-2.6
	c2.7-1.7,5.2-2.1,11.4-2.3c5.4-0.2,7.9-0.4,11-1.4c3.7-1.2,7-3.3,9.5-6.2c4.9-5.3,10-7.6,17.8-8.9c1.1-0.2,1.9-0.3,3.9-0.6
	c6.9-1,9.9-1.7,13.5-3.6c4.5-2.5,6.8-4.4,23.5-19.7l3.1-2.9c9.7-8.7,16.1-13.8,21.4-16.5c4.3-2.1,7.6-4.7,11.2-8.6v1.5
	c-3.4,3.6-6.7,6-10.8,8c-5.2,2.6-11.6,7.7-21.2,16.3l-3.1,2.9c-16.8,15.4-19,17.3-23.7,19.8c-3.7,2-6.8,2.8-13.8,3.7
	c-2,0.3-2.8,0.4-3.8,0.6c-7.6,1.3-12.5,3.5-17.2,8.6c-2.7,3-6.1,5.3-10,6.5c-3.2,1-5.7,1.3-11.3,1.5c-6,0.2-8.4,0.6-10.9,2.1
	c-1.4,0.9-2.8,1.8-4.3,2.6c-1.7,1-3.5,1.9-5.4,2.8c-5,2.2-12.1,4.4-25.5,7.7c-9.7,2.4-15.3,7.6-24.4,20.6l-1.8,2.5
	c-8.9,12.5-14.8,18.3-24.8,21.9c-6.6,2.4-10.9,4.6-13.4,6.8c-2.1,1.9-3,3.7-3.2,6c-0.1,1.8,0,2.6,1,7.3c0.7,3.4,1,5.7,1,8.4
	c0,14.8-7.9,27-30.2,45.4c-7,5.8-10.6,13-11.6,22c-0.8,7-0.1,13.7,2,26.2l0.3,1.8c2.1,12.7,2.8,18.1,2.5,24.6
	C336.3,590.6,336.2,595.2,336.2,600L336.2,600z M95.9,600h-2c0.7-3.8,1.1-8.8,1.6-16c0.2-3.1,0.3-4.1,0.4-5.6
	c1.3-17.5,4-27.1,11.5-33.2c4.7-3.8,7.2-8.9,8.7-16c0.5-2.5,0.7-3.9,1.3-9.2c0.7-5.5,1.2-8.1,2.2-10.4c1.4-3.1,3.8-4.7,7.4-4.7
	c14.3,0,38.5,9.1,53.6,20.2c8.7,6.3,21.3,13.3,31.7,17.1c13,4.7,21.9,4.4,24.8-1.7c1.7-3.6,1.9-4.1,2.6-5.8
	c2.9-6.7,4.7-12.2,5.3-17.5c0.2-2.2,0.2-4.2,0-6.2c-0.3-2.8-1.4-4.5-4.1-7.4l-1.3-1.4c-0.9-0.9-1.7-1.8-2.4-2.8
	c-0.9-1.3-1.8-2.6-2.5-4.1l-1.1-2.1c-1.6-3.1-2.7-4.6-4.1-5.6c-5.3-3.5-14.8-5.5-28.6-6.8c-3-0.3-6-0.5-9-0.7l-2.2-0.2
	c-9.6-0.7-15.1-1.6-19.1-3.2c-14-5.9-34.6-26.4-34.6-36.9c0-5.3,1.7-9.5,5.5-14.1c2-2.4,11.1-11.7,12.8-13.5
	c4.5-5,10.2-9.5,17.7-14.7c2.8-1.9,14.8-9.6,17.5-11.5c2.3-1.6,4.4-3.4,6.3-5.4c1.5-1.5,7-7.1,7.1-7.3c7.2-7.3,12.7-11.6,19.7-14.4
	c3.4-1.3,8.1-2.8,17.4-5.4c3.9-1.1,7.9-2.2,11.8-3.3c4.2-1.2,8.5-2.4,12.7-3.7c20.4-6.2,34-12.1,40.8-18.4
	c8.7-8.2,11.8-13.8,15.7-26c2-6.2,3.1-9,5.1-12.7c9.5-17.7,28.7-39.4,43.5-45.4c14.1-5.8,19.4-11.7,19.4-18.1
	c0-2.9,2.7-8.4,6.8-13.7c4.8-6.2,10.6-11.4,16.8-14.2c12.5-5.8,33.5-10.1,47.4-10.1c5.3,0,9.8-1.5,16.4-4.9
	c9.2-4.7,10.1-5.1,13.6-5.1c10.4,0,32.1-2.6,45.8-6l3.9-1l3.5-0.9c2.6-0.7,4.3-1.1,5.9-1.4c3.9-0.9,6.8-1.2,9.6-1.2
	c2.7,0.1,5.5,0.5,8.7,1.5c4.6,1.4,13.7-0.9,22.9-5.7c3.5-1.8,6.7-3.9,9.8-6.2v2.4c-11.1,8.1-25.8,13.7-33.3,11.4
	c-2.6-0.8-5.4-1.3-8.1-1.4c-2.6-0.1-5.4,0.3-9.1,1.1c-3.1,0.7-6.2,1.5-9.3,2.3l-3.9,1c-13.9,3.5-35.7,6-46.2,6
	c-3,0-3.9,0.4-12.7,4.9c-6.9,3.5-11.6,5.1-17.3,5.1c-13.6,0-34.4,4.3-46.6,9.9c-5.8,2.7-11.4,7.6-16,13.6c-3.9,5-6.4,10.2-6.4,12.5
	c0,7.3-5.8,13.8-20.6,19.9c-14.3,5.9-33.2,27.2-42.5,44.6c-1.9,3.5-3,6.3-4.9,12.4c-4,12.5-7.2,18.4-16.3,26.9
	c-7.1,6.6-20.9,12.6-41.6,18.9c-4.2,1.3-8.5,2.5-12.7,3.7c-3.9,1.1-7.9,2.2-11.8,3.3c-9.2,2.6-14,4-17.2,5.3
	c-6.7,2.7-12.1,6.8-19.1,13.9c-0.1,0.1-5.6,5.8-7.1,7.3c-2,2.1-4.2,4-6.6,5.6c-2.7,1.9-14.8,9.6-17.5,11.5
	c-7.4,5-12.9,9.5-17.3,14.4c-1.7,1.9-10.8,11.1-12.7,13.5c-3.5,4.3-5,8-5,12.9c0,9.5,20,29.5,33.4,35.1c3.7,1.5,9.1,2.3,18.4,3
	c1.4,0.1,2.9,0.2,4.3,0.3c3.2,0.2,5.1,0.4,6.9,0.5c14.1,1.4,23.8,3.4,29.4,7.2c1.8,1.2,3,2.9,4.8,6.3l1.1,2.1
	c0.7,1.3,1.5,2.6,2.3,3.8c0.6,0.8,1.3,1.6,2.3,2.6c0.2,0.2,1.1,1.2,1.3,1.4c2.9,3.1,4.2,5.2,4.6,8.5c0.2,2.1,0.2,4.3,0,6.6
	c-0.6,5.5-2.4,11.3-5.4,18.1c-0.7,1.7-1,2.2-2.7,5.8c-3.5,7.5-13.3,7.8-27.3,2.8c-10.7-3.9-23.4-10.9-32.3-17.4
	C164.6,516,140.8,507,127,507c-5,0-6.4,3-7.6,13.3c-0.3,3.1-0.8,6.2-1.4,9.3c-1.5,7.5-4.3,13-9.4,17.2c-6.9,5.6-9.5,14.8-10.8,31.8
	c-0.1,1.5-0.2,2.5-0.4,5.6C97,591.2,96.6,596.1,95.9,600L95.9,600z M104,600h-1c0.3-1.4,0.6-2.9,0.9-4.6l1.1-5.6
	c2.5-13.3,4.2-19.9,6.7-24c1.7-2.8,3.7-5.5,8.1-11c8.2-10.4,10.9-14.5,10.9-18.7v-1.7c0-1.8,0-2.7,0-3.8c0.2-5,1.5-8.2,4.6-9.4
	c3.9-1.5,10.4,0.4,20.1,6.4c9.6,5.9,17.5,10.7,25.9,15.7c1.3,0.8,14.3,8.4,17.7,10.5c2.1,1.3,4.3,2.6,6.4,3.9
	c13.8,8.5,38.9,5,46.3-7.8c3.6-6.3,4.5-8.5,7.8-17.3c0.4-1,0.8-2.1,1.2-3.1c1.1-2.7,2.4-5.2,4.1-7.6c9.3-14,14.9-26.1,14.9-36.7
	c0-3.7,0.8-6.6,3.4-14.9c0.5-1.6,0.8-2.7,1.1-3.7c3.6-12.2,3-19.1-4.3-24c-3-2-6.4-3.3-10-3.8c-7.2-0.9-14.5,1.2-23.9,5.9
	c-1.6,0.8-6.6,3.4-7.6,3.9c-1.4,0.7-2.8,1.5-4.1,2.3l-4.4,2.7c-11.6,6.9-20.4,9.2-32.8,6.1c-3.3-0.8-6.2-1.4-13.1-2.6
	c-13.3-2.4-18.7-3.8-23.3-6.5c-6.2-3.7-7.5-9-2.9-16.6c4-6.7,8.9-12.8,14.4-18.3c2.7-2.7,5.5-5.2,8.3-7.7c-0.1,0,6.2-5.3,7.8-6.8
	c2.3-2,4.4-4.1,6.5-6.3c7.7-8.5,12.8-13.4,20.1-18.6c9.9-7.1,21.4-12.4,35.2-15.6c37-8.6,51-12.7,58.8-17.9
	c8.6-5.7,21.3-24.8,36.8-54.8c5.2-10.1,12.3-18.4,21.1-25.7c5.1-4.2,9.6-7.3,17.5-12.2c7.4-4.6,9.6-6.1,11.4-8.2
	c1.2-1.5,2.2-3.1,3-4.9c0.6-1.3,2.9-6.5,3-6.8c1.4-3,2.6-5.4,4-7.7c6.5-11,16-18,31.4-20.8c12.7-2.3,19.9-2.7,29.7-2.3
	c3.3,0.1,4.1,0.2,5.6,0.1c5.1-0.1,9.7-1,16.6-3.8c20.7-8.3,38.8-12,59.2-12c3,0,6,0.1,10.5,0.5l2.1,0.2c12.5,1,18.1,1,25.3-0.6
	c4.9-1.1,9.7-2.9,14.1-5.4v1.1c-4.3,2.4-9,4.2-13.9,5.3c-7.4,1.6-13.1,1.6-25.6,0.6l-2.1-0.2c-4.4-0.3-7.4-0.5-10.4-0.5
	c-20.3,0-38.2,3.7-58.8,12c-7,2.8-11.7,3.8-17,3.9c-1.5,0-2.4,0-5.7-0.1c-9.8-0.4-16.8,0-29.5,2.3c-15.1,2.7-24.3,9.6-30.7,20.3
	c-1.4,2.5-2.8,5-3.9,7.6c-0.1,0.3-2.4,5.5-3,6.8c-0.8,1.8-1.8,3.5-3.1,5.1c-1.9,2.1-4.1,3.7-11.6,8.4c-8,5-12.4,7.9-17.4,12.2
	c-8.8,7.2-15.7,15.4-20.9,25.4c-15.6,30.2-28.4,49.3-37.2,55.2c-8,5.3-22,9.4-59.2,18.1c-13.6,3.2-25,8.4-34.8,15.4
	c-7.2,5.2-12.3,10-19.9,18.4c-2.1,2.2-4.3,4.4-6.6,6.4c-1.7,1.5-7.9,6.8-7.8,6.8c-3.3,2.8-5.8,5.2-8.3,7.6
	c-5.5,5.4-10.3,11.5-14.3,18.1c-4.3,7.2-3.2,11.9,2.5,15.3c4.5,2.6,9.9,4,23.2,6.4c4.3,0.7,8.6,1.6,12.9,2.6c12.1,3,20.6,0.8,32.1-6
	l4.4-2.6c1.7-1,3-1.7,4.2-2.4c0.9-0.5,6-3.1,7.6-3.9c9.6-4.8,17-6.9,24.5-6c3.7,0.5,7.3,1.8,10.4,3.9c7.8,5.2,8.5,12.5,4.7,25.1
	c-0.3,1.1-0.6,2.1-1.2,3.7c-2.6,8.1-3.3,11-3.3,14.5c0,10.9-5.7,23.1-15.1,37.3c-1.6,2.3-2.9,4.8-4,7.5c-0.4,0.9-0.7,1.8-1.2,3
	c-3.3,8.8-4.2,11.1-7.8,17.5c-7.7,13.4-33.4,17-47.7,8.2c-2.1-1.3-4.3-2.6-6.4-3.9c-3.4-2-16.4-9.7-17.7-10.5
	c-8.4-5-16.4-9.8-25.9-15.7c-9.5-5.8-15.7-7.7-19.2-6.4c-2.7,1-3.8,3.8-4,8.5c0,1.2-0.1,2.5,0,3.7v1.7c0,4.5-2.7,8.7-11.5,19.9
	c-3.9,5-5.9,7.6-7.6,10.4c-2.4,4-4.1,10.6-6.6,23.7l-1.1,5.6L104,600L104,600z M114.5,600h-1c0-0.3,0-0.7,0-1
	c0-12.4,8.5-33.6,19.2-43.4c1.4-1.3,2.6-2.7,3.7-4.2c1.1-1.6,2.1-3.2,2.9-4.9c0.4-0.7,1.8-3.7,2.1-4.4c3.2-6.3,6.8-6.5,17,0.4
	c1.3,0.9,6.1,4.2,6.4,4.4c2.6,1.8,4.7,3.2,6.7,4.6c5,3.4,9.4,6.2,13.5,8.7c14.3,8.7,25.5,13.3,34.1,13.3c16.9,0,32.7-6,39.6-14.8
	c1.6-2,3.2-5.2,5.1-9.6c0.8-1.9,1.6-4.1,2.7-6.8l2.7-7.3c4.7-12.4,7.8-19.1,11.6-23.3c7.9-8.8,14.9-36,14.9-52.7
	c0-1.9,0.2-3.1,1-8.3c0.4-2.2,0.6-3.6,0.7-5.1c0.6-5.5,0.2-9.5-1.7-12.4c-4.6-7.1-19.7-9.2-38.5-4.8c-6.5,1.5-12.9,3.6-18.9,6.3
	c-5.2,2.4-17.1,9.7-16.5,9.4c-6.7,3.6-13,4.1-24.8,1.3c-29.6-7.1-30.4-8.6-15.3-26.8c17.4-20.9,47.1-46.2,56.4-46.2
	c9.9,0,53.8-12,65.8-18c9.5-4.7,24.3-21.2,36.8-37.9c0.7-1,13.5-21.6,19.2-29.6c9.4-13.1,18.2-22.5,27-27.5
	c7.3-4.2,13.2-10.3,18.8-18.7c1.9-2.9,10.5-17.6,12.7-20.4c1.5-1.9,3-3.2,4.5-3.9c14.1-6.3,24.2-9,39.2-9h29c4,0,7.4-0.4,22.9-2.5
	l4.3-0.6c9.9-1.3,16.6-1.9,21.8-1.9c1.7,0,3,0,6,0c18.6,0.2,28.5-0.5,44.9-4c3.1-0.7,6.1-1.8,9.1-3.3v1.1c-2.8,1.4-5.8,2.5-8.9,3.2
	c-16.4,3.6-26.4,4.2-45.1,4.1c-3.1,0-4.4,0-6,0c-5.2,0-11.8,0.6-21.6,1.9L514,206c-15.6,2.1-18.9,2.5-23.1,2.5h-29
	c-14.8,0-24.8,2.8-38.8,9c-1.3,0.6-2.7,1.8-4.1,3.6c-2.2,2.7-10.7,17.4-12.7,20.3c-5.7,8.6-11.7,14.8-19.1,19
	c-8.6,4.9-17.4,14.2-26.6,27.2c-5.7,8-18.5,28.6-19.2,29.6c-12.6,16.8-27.5,33.3-37.2,38.1c-12.1,6-56.1,18-66.2,18
	c-8.8,0-38.4,25.1-55.6,45.8c-14.6,17.5-14.2,18.2,14.7,25.2c11.6,2.8,17.6,2.3,24.1-1.2c-0.7,0.4,11.3-7,16.6-9.4
	c5.4-2.5,11.6-4.6,19.1-6.4c19.1-4.5,34.6-2.4,39.5,5.2c2,3.2,2.5,7.3,1.8,13c-0.2,1.7-0.5,3.4-0.8,5.1c-0.8,5.1-1,6.3-1,8.1
	c0,16.9-7,44.3-15.1,53.3c-3.7,4.1-6.8,10.7-11.4,23c-0.4,0.9-2.2,5.9-2.7,7.3c-1,2.8-1.9,4.9-2.7,6.8c-1.9,4.5-3.5,7.7-5.2,9.8
	c-7.1,9.1-23.3,15.2-40.4,15.2c-8.9,0-20.1-4.7-34.6-13.4c-4.1-2.5-8.5-5.3-13.6-8.7c-2.2-1.5-4.5-3-6.7-4.6l-6.4-4.4
	c-9.7-6.6-12.6-6.4-15.5-0.8c-0.4,0.7-1.7,3.6-2.1,4.3c-0.9,1.8-1.8,3.4-3,5c-1.1,1.6-2.4,3-3.8,4.3c-10.5,9.6-18.8,30.5-18.8,42.6
	L114.5,600L114.5,600z M84.8,600h-1.1c1.2-2.5,1.8-5.2,1.8-8c0-20,4.8-42,12.2-49.3c5.2-5.2,7.8-8.4,9.9-12.7
	c2.6-5.4,3.9-12,3.9-20.9c0-6.8,1.1-11.6,3.4-15.1c1.7-2.7,3.6-4.2,8.9-7.5c1.4-0.8,2.7-1.8,3.9-2.8c4.6-4,6.6-6.2,7.7-9.4
	c1.4-4,0.9-9-1.9-16c-1.2-2.8-2.5-5.5-4-8.1l-0.9-1.7c-0.9-1.6-1.8-3.3-2.6-5c-5.2-10.7-3.8-18.9,7.7-29.8
	c8.3-7.9,17.3-15.1,26.8-21.5c4-2.7,16.8-10.8,19.2-12.5c2-1.4,4.3-3.3,7.8-6.3c0,0,7.2-6.4,9.5-8.3c5-4.3,9.1-7.5,13.1-10.1
	c4.7-3.1,9-5.3,12.9-6.3c12.8-3.4,15.6-4.2,21.8-6c12.5-3.6,22-6.9,28.1-10c2.4-1.1,4.9-2.1,7.5-2.8c8.7-2.7,12-4.1,17-8.1
	c6.8-5.5,13.1-14.3,19.3-27.9c16-34.8,19.1-39.4,32.1-49.2c3.1-2.4,6.4-4.1,11.4-6.4l2.3-1c11.9-5.4,16.9-8.9,21.1-17.4
	c1.9-3.8,2.5-6.3,3.4-12.3c0.8-5.2,1.5-7.6,3.5-10.3c2.6-3.4,7-6.3,14.4-9c3.4-1.3,7.4-2.5,12-3.7c16.3-4.3,25.3-5.4,39.6-5.8
	c6.9-0.2,9.5-0.6,12.7-2c1.2-0.5,2.4-1.2,3.6-2.1c3.7-2.7,8.1-4.5,13.2-5.7c5.7-1.3,10.7-1.5,18.7-1.4h2.4c2.8,0,6.8-1,19.7-4.7
	c10.8-3.1,16-4.3,19.3-4.3c0.8,0,1.9,0.1,3.5,0.4l5,0.9c9.8,1.7,17.4,1.9,25.2-0.2c8-2.2,14.8-6.8,20.3-14.2v1.6
	c-5.5,7-12.2,11.4-20,13.6c-7.9,2.1-15.6,1.9-25.6,0.2l-5-0.9c-1.6-0.3-2.6-0.4-3.4-0.4c-3.2,0-8.3,1.2-19.7,4.5
	c-12.3,3.5-16.3,4.5-19.3,4.5h-2.4c-7.9-0.1-12.9,0.2-18.5,1.4c-5,1.1-9.3,2.9-12.9,5.5c-1.2,0.9-2.4,1.6-3.8,2.2
	c-3.3,1.5-6,1.9-13,2.1c-14.3,0.4-23.1,1.5-39.4,5.8c-4,1-8,2.3-12,3.7c-7.2,2.7-11.5,5.5-13.9,8.7c-1.9,2.5-2.6,4.8-3.3,9.8
	c-0.9,6.1-1.5,8.7-3.5,12.6c-2.2,4.6-5.5,8.5-9.7,11.4c-3.1,2.3-6,3.7-11.9,6.4l-2.3,1c-5,2.3-8.2,4-11.3,6.3
	c-12.9,9.7-15.9,14.2-31.9,48.8c-6.3,13.8-12.7,22.7-19.6,28.3c-5.1,4.1-8.5,5.6-17.3,8.3c-2.5,0.7-5,1.6-7.3,2.7
	c-6.2,3.1-15.7,6.4-28.3,10.1c-7.2,2.1-14.5,4.1-21.8,6c-3.8,1-7.9,3.1-12.6,6.2c-4.5,3.1-8.8,6.5-12.9,10.1
	c-2.2,1.9-9.5,8.3-9.5,8.3c-2.5,2.3-5.1,4.4-7.8,6.4c-2.5,1.7-15.3,9.8-19.3,12.5c-9.5,6.4-18.4,13.6-26.7,21.5
	c-11.1,10.6-12.4,18.3-7.5,28.6c0.8,1.7,1.7,3.3,2.6,5l0.9,1.7c1.5,2.6,2.9,5.4,4,8.2c2.9,7.2,3.4,12.5,1.9,16.7
	c-1.2,3.4-3.3,5.8-8,9.8c-1.1,1-2.3,1.8-5.3,3.7c-3.9,2.5-5.7,3.9-7.3,6.4c-2.1,3.3-3.2,7.9-3.2,14.5c0,9-1.3,15.8-4.1,21.3
	c-2.2,4.5-4.8,7.8-10.1,13c-7.1,7.1-11.8,28.9-11.8,48.7C86.5,594.8,85.9,597.5,84.8,600L84.8,600z M367.3,600h-1l-1.1-5.8
	c-3.1-16.3-4-26.2-2.7-37.3c0.7-5.8,0.8-9.7,0.5-15.3c-0.2-4.5-0.2-5.7,0.2-7.6c0.8-4.3,3.4-8.5,10.4-16.3
	c9.1-10.2,12.3-15.4,19.8-30.1c1.4-2.6,2.3-4.5,3.4-6.3c0.9-1.6,1.8-3.1,2.8-4.5c3.1-4.7,7-8.4,16.8-16.8
	c11.2-9.6,15.5-13.9,18.1-19.1c0.7-1.4,1.3-2.8,1.9-4.4c0.5-1.3,1-2.7,1.5-4c3.6-9.9,8-13.9,22.9-17.8c5-1.3,20.5-5.1,21.4-5.3
	c16.2-4.1,25.3-7.4,33.5-12.6c5.9-3.8,5.8-3.8,27.7-16.5l2.6-1.5c10.2-6,17.1-10.2,22.7-14c3-2,5.9-4.1,8.8-6.3
	c2.1-1.7,4.3-3.4,6.4-5.1c5-4,10.4-7.4,16.1-10.3v1.1c-5.5,2.7-10.7,6.1-15.5,9.9c0.2-0.1-4.8,3.8-6.4,5.1c-2.9,2.2-5.8,4.3-8.8,6.4
	c-5.7,3.8-12.5,8-22.8,14l-2.6,1.5c-21.8,12.8-21.8,12.7-27.6,16.5c-8.3,5.3-17.5,8.6-33.8,12.7c-0.8,0.2-16.4,4-21.4,5.3
	c-8,2.1-13.1,4.5-16.5,7.5c-2.7,2.4-4,4.9-5.8,9.7l-1.5,4.1c-0.6,1.5-1.2,3-2,4.5c-2.7,5.5-7,9.8-18.4,19.5
	c-9.7,8.3-13.6,12-16.6,16.6c-1,1.5-1.9,2.9-2.7,4.5c-1,1.8-2,3.6-3.4,6.3c-7.6,14.8-10.8,20.1-20,30.4c-6.8,7.7-9.4,11.8-10.1,15.9
	c-0.3,1.8-0.3,3-0.2,7.4c0.2,5.7,0.1,9.6-0.5,15.5c-1.3,10.9-0.3,20.8,2.7,37L367.3,600L367.3,600z M290.8,600h-2.1l1.4-4.3
	c1-3.3,1.9-6.8,2.7-10.4c2.6-12.7,3.3-23.6,3.3-41.3c0-5.7-1.9-9.8-4.1-9.8c-2.9,0-7,5.6-10.9,17.1c-9.8,28.3-22.6,41.7-42.9,41.7
	c-22.4,0-29.3-1.3-48.4-10.1c-3.2-1.5-6.4-3.2-9.4-5c-2.9-1.8-12.8-8.6-14.8-9.7c-4.2-2.4-7-2.7-9.7-1c-0.6,0.4-1.3,0.9-1.9,1.5
	c-1.4,1.4-2.8,2.6-4.3,3.9c-1,0.8-2,1.6-3.1,2.4l-1,0.8C137,582.4,134,587.2,134,597c0,1,0,2-0.1,3h-2c0.1-1,0.1-2,0.1-3
	c0-10.5,3.3-15.8,12.1-22.8c0.7-0.5,1.3-1.1,2-1.6c0.8-0.6,1.4-1.1,2-1.6c1.5-1.2,2.8-2.4,4.2-3.7c0.7-0.7,1.5-1.3,2.2-1.8
	c3.5-2.2,7-1.8,11.8,0.9c2.1,1.2,12,8,14.9,9.8c3,1.8,6,3.5,9.2,4.9c18.9,8.6,25.4,9.9,47.6,9.9c19.3,0,31.5-12.7,41.1-40.3
	c4.2-12.3,8.7-18.4,12.8-18.4c3.8,0,6.1,5.1,6.1,11.8c0,17.8-0.6,28.8-3.3,41.7c-0.8,3.7-1.7,7.2-2.8,10.6
	C291.6,597.6,291.2,598.8,290.8,600L290.8,600z M141.5,600l0.5-0.9c2.4-4.3,4.6-8.7,6.5-13.3c2.7-6.3,5.8-9.6,9.2-10.5
	c3.7-1,7.1,0.7,12.6,5.1c5.4,4.4,6.1,4.9,7.7,5.1c1.6,0.2,4.3,1.1,8.9,3c1.3,0.5,10.8,4.3,13.9,5.5s5.9,2.3,8.5,3.2
	c3.1,1.1,6,2,8.6,2.8h-3.4c-1.8-0.6-3.6-1.2-5.5-1.9c-2.9-1-5.7-2.1-8.5-3.2c-3.1-1.2-12.6-5-13.9-5.5c-4.5-1.8-7.1-2.7-8.6-2.9
	c-1.9-0.3-2.5-0.7-8.2-5.3c-5.2-4.2-8.4-5.8-11.7-4.9c-3.1,0.8-5.9,3.9-8.6,10c-2.1,4.7-4.3,9.3-6.8,13.8L141.5,600L141.5,600z
	 M254.4,600c4.2-1.3,8-3.4,11.3-6.3c1.5-1.4,3.3-3.5,5.3-6.3c1-1.5,2.1-3.1,3.4-5c0.8-1.3,1.7-2.6,2.5-3.9l0.5-0.8l0.9-1.5
	c1-1.7,2.1-3.3,3.3-4.9c1-1.4,1.8-2.2,2.4-2.5c1-0.4,1.5,0.5,1.5,2v2.1c0,6.9-0.1,11.3-0.7,16.3c-0.4,3.6-1.2,7.1-2.4,10.6h-1.1
	c1.2-3.5,2.1-7,2.5-10.7c0.6-5,0.8-9.3,0.7-16.2v-2.1c0-1-0.1-1.1-0.1-1.1c-0.4,0.1-1,0.8-2,2.1c-1.1,1.6-2.2,3.2-3.2,4.8l-0.9,1.5
	l-0.5,0.8c-0.8,1.3-1.7,2.6-2.5,3.9c-1.3,2-2.4,3.6-3.4,5.1c-2.1,2.9-3.9,5-5.5,6.5c-2.6,2.3-5.7,4.2-8.9,5.5L254.4,600L254.4,600z
	 M70.7,600h-1.4c3.4-3.4,5.2-8.3,5.2-15c0-18.6,0-17.3,1-20.8c0.6-1.9,1.5-3.7,3.3-6.6c0.4-0.7,4.9-7.8,6.8-10.9
	c3-5,11-16.5,12.2-18.6c3.5-6.1,4.7-12.1,4.7-24.2c0-7.9,2.5-14.2,8.1-23.4l2.8-4.6c0.9-1.4,1.7-2.9,2.5-4.4
	c1.6-3.1,2.5-5.8,2.6-8.3c0.2-3.8-1.3-7.3-4.9-10.9c-5.1-5.1-8.6-5.4-11.2-1.9c-2.1,2.9-3.5,7.7-5.1,16.5c-0.2,1-0.8,4.6-0.8,4.6
	c-0.8,4.7-1.4,7.3-2.1,9.6c-1.3,4.4-3.7,7.6-8.4,12.3l-3.3,3.2c-6.4,6.4-9.7,11.5-11.4,19.5l-1.2,5.5c-0.9,4.1-1.6,7-2.3,9.9
	c-3.7,13.7-9.7,26-22.6,44.7c-7.7,11.1-11,18.9-10.9,23.7h-1c-0.1-5.2,3.3-13,11.1-24.3c13-18.6,19-30.7,22.6-44.3
	c0.8-2.9,1.4-5.8,2.3-9.9l1.2-5.5c1.7-8.2,5.1-13.5,11.6-20c0.6-0.6,2.8-2.8,3.3-3.2c4.6-4.5,6.8-7.6,8.1-11.8
	c0.9-3.1,1.6-6.3,2.1-9.5l0.8-4.6c1.6-8.9,3-13.8,5.2-16.9c3-4.1,7.2-3.8,12.7,1.7c3.8,3.8,5.4,7.6,5.2,11.7
	c-0.2,2.7-1.1,5.4-2.7,8.7c-0.8,1.5-1.6,3-2.5,4.5l-2.8,4.6c-5.5,9.1-8,15.3-8,22.9c0,12.3-1.3,18.4-4.8,24.7
	c-1.2,2.1-9.2,13.7-12.2,18.6c-1.9,3.1-6.4,10.2-6.8,10.9c-1.7,2.8-2.6,4.6-3.2,6.4c-1,3.3-1,2.1-1,20.5
	C75.5,591.5,73.8,596.4,70.7,600L70.7,600z M310.1,0h1.1c-0.4,0.9-0.8,1.8-1.2,2.8c-3.9,9.1-5.5,15.1-5.5,25.2
	c0,7.6-2.1,11.6-6.6,13c-3.5,1.1-5.7,1-17.6-0.4c-11.5-1.4-19.2-1.6-28.2-0.1c-6.2,2.5-25.9,7-32.1,7c-11.1,0-36.8-2.9-54.1-7
	C160.1,39,154,39.9,149,43c-4.1,2.3-7.1,5-13.9,12c-6.3,6.4-9.5,9.2-13.8,11.5c-7.1,3.8-11.2,7.7-13.4,12.3
	c-1.8,3.8-2.3,7.8-2.3,15.3c0,4.4-2.7,6.7-9.4,9.7c0.1-0.1-3,1.3-3.8,1.7c-8.8,4.1-12.7,8.3-12.7,16.5c0,12.5-4.9,19.2-17.3,28
	l-4.6,3.1c-1.9,1.3-3.3,2.3-4.7,3.3c-0.9,0.7-1.8,1.3-2.6,2c-7.2,5.6-11,14.5-15.6,33.3c-0.6,2.6-3.3,14-4.1,17.1
	c-1.5,6.5-3.3,12.9-5.2,19.3c-1.4,4.5-4.5,15.1-5,16.5c-1,3.4-1.6,4.9-2.5,6.3c-0.8,1.4-6.9,9.1-12.6,18.3L0,278v-1.9l4.6-7.4
	c4-6.2,8.2-12.3,12.6-18.2c-0.3,0.5,1.4-2.8,2.4-6.1c0.5-1.4,3.6-12,5-16.5c1.8-6,3.4-12.1,5.2-19.3c0.8-3.1,3.4-14.6,4.1-17.1
	c4.6-18.9,8.5-28,15.9-33.8c0.8-0.7,1.7-1.3,2.7-2c1.4-1,2.8-2,4.7-3.3l4.5-3.1c12.2-8.6,16.9-15,16.9-27.1
	c0-8.7,4.2-13.3,13.3-17.4c0.9-0.4,4-1.8,3.8-1.7c6.5-2.9,8.9-5,8.9-8.8c0-7.6,0.5-11.7,2.4-15.7c2.3-4.8,6.6-8.8,13.8-12.7
	c4.2-2.2,7.4-5,14.1-11.9c6.3-6.4,9.4-9.1,13.5-11.5c5.3-3.2,11.7-4.1,17.7-2.6c17.3,4.1,42.8,7,53.9,7c6.1,0,25.7-4.5,31.9-7
	c9.1-1.5,16.8-1.3,28.5,0.1c11.6,1.4,13.9,1.5,17.1,0.5c4.1-1.3,5.9-4.8,5.9-12.1C303.5,17.9,305.1,11.7,310.1,0L310.1,0z M335.2,0
	h1c0,5.6,0.3,11.5,0.6,19.4c0.5,9.7,0.6,14.6,0.6,21.6c0,9.8-4.7,17.5-13.1,23.2c-6.5,4.4-14.9,7.5-24.3,9.3
	c-3.7,0.5-9.4,0.6-22.7,0.2c-6.7-0.2-9.4-0.2-12.4-0.2c-2.8,0-5,0.4-7.6,1.4c-0.9,0.3-4.6,1.7-5.6,2.1c-6.6,2.3-13.6,3.5-24.8,3.5
	c-8.1,0-13.6-1.4-22.5-4.9l-3.2-1.3c-12.6-4.9-21.3-5.2-37.2,1.1c-11.1,4.4-18.1,9.2-22.3,14.8c-3.1,4.3-4.3,7.8-5.9,15.8
	c-1.2,6.1-1.9,8.7-3.5,12.1c-1.6,3.5-4,5.8-7.1,7.2c-2.3,1.1-4.3,1.5-9.3,2.2c-9,1.3-12.8,3.1-15.6,9.6c-3.7,8.5-7.7,13.9-14.2,19.8
	c-2.4,2.2-13.1,11-15.9,13.4c-8.2,7.1-13.8,17.4-18.7,32c-1.2,3.5-2.3,7.1-3.3,10.7c0,0.1-2.3,8-2.9,10.1
	c-8.3,28.9-17.7,53-25.9,61.3c-2.8,2.8-5.1,5.6-10.4,13c-3.4,4.7-6.2,8.3-8.9,11.1V307c2.7-3,5.7-6.8,9.5-12c4-5.5,6.3-8.4,9.2-11.2
	c8.1-8.1,17.4-32.1,25.9-60.8c0.6-2.1,2.9-10,2.9-10.1c1.2-4.2,2.2-7.5,3.3-10.7c4.9-14.8,10.6-25.2,19-32.4
	c2.8-2.4,13.5-11.3,15.9-13.4c6.4-5.8,10.3-11.1,14-19.4c1.7-3.8,4.1-6.3,7.2-7.9c2.4-1.2,4.6-1.7,9.5-2.4c4.5-0.6,6.5-1.1,8.7-2.1
	c2.9-1.3,5-3.4,6.6-6.7c1.5-3.3,2.2-5.9,3.4-11.9c1.6-8.1,2.9-11.8,6.1-16.2c4.3-5.8,11.4-10.7,22.7-15.2
	c16.1-6.4,25.1-6.1,37.9-1.1l3.2,1.3c8.8,3.5,14.1,4.8,22.1,4.8c11.1,0,18-1.2,24.5-3.5c1-0.4,4.7-1.8,5.6-2.1c2.5-1,5.2-1.4,8-1.4
	c3,0,5.7,0.1,14.1,0.3c11.5,0.3,17.2,0.3,20.8-0.3c9.3-1.8,17.5-4.8,23.9-9.2c8.2-5.5,12.7-12.9,12.7-22.3c0-7-0.2-11.9-0.7-22.7
	C335.4,11,335.3,5.5,335.2,0z M93.9,0h2c-0.7,4-1.6,6.8-3,9.5c-2.3,4.4-2.8,5.8-5.3,13c-0.5,1.7-1.2,3.4-1.9,5
	c-2.2,4.7-5.9,8.8-13.1,14.3c-8,6.1-14.3,16.5-20,31.5c-2.4,6.2-8.8,25.6-9.6,28c-2.7,7.2-6.6,12.7-15.6,23.7l-2.7,3.2
	c-6,7.3-9.4,12.1-11.7,17.1c-2.3,4.9-7.1,9.9-12.9,14.1V157c5.1-3.9,9.1-8.3,11.1-12.6c2.5-5.3,5.9-10.1,12-17.6l2.7-3.3
	c8.9-10.8,12.7-16.2,15.3-23.1c0.9-2.3,7.2-21.7,9.6-28c5.9-15.3,12.3-26,20.7-32.4c6.9-5.3,10.4-9.2,12.5-13.5
	c0.7-1.4,1.2-2.7,1.8-4.8c2.4-7.4,3-8.8,5.4-13.3C92.5,5.9,93.4,3,93.9,0z M102.9,0h1c-1.7,8.3-2.9,12.7-4.5,15.3s-2.9,5.4-4.1,8.2
	c-1.3,3-2.4,6.2-3.5,9.4c-0.4,1.1-0.7,2.2-2.4,5.4C85,42.5,80.7,47,76.6,51.6c-3.5,4-5.9,7.3-7.2,9.7c-0.9,1.9-2.1,6-3.6,13
	c-0.6,2.9-3.7,17.2-4.5,21.1c-3.6,16.5-6.6,26.7-9.9,32c-7.7,12.5-10.6,15.7-37.1,41.1c-4.3,4.2-9.1,7.9-14.3,10.9v-1.1
	c5-2.9,9.5-6.4,13.6-10.4c26.4-25.6,29.4-28.8,37-41.2c3.2-5.2,6.2-15.4,9.8-31.7c0.9-3.9,3.9-18.2,4.5-21.1
	c1.6-7.1,2.7-11.2,3.7-13.2c1.2-2.5,3.8-5.9,7.3-9.9c0.9-1,1.9-2.1,2.9-3.2c2.4-2.6,5-5.2,7.5-7.8c0.9-0.9,1.7-1.7,3.4-3.4
	c1.3-4.6,2.9-9.1,4.8-13.5c1.2-2.9,2.6-5.7,4.2-8.4C100.1,12.3,101.3,8,102.9,0L102.9,0z M83.7,0h1.1c-2.1,4.7-6,8.9-11.4,12.3
	c-7.2,4.5-16.5,7.2-24.4,7.2c-8.9,0-11.8,7-11.7,21.5c0,1.7,0,3.2,0.1,6c0.1,3.3,0.1,4.5,0.1,6c0,5.7-0.8,11.3-2,16.5
	c-0.6,2.4-1.3,4.7-2.2,7c-2.3,5.3-4.6,10.6-7,15.9c-6.6,14.7-13.2,29.3-19.9,43.9C4.7,140,2.6,143.7,0,147v-1.6c2.2-3,4-6.2,5.6-9.6
	c8.5-18.5,16.9-37.1,25.2-55.8c0.5-1.2,1-2.2,2.4-5.9c2.2-6.8,3.3-13.9,3.4-21.1c0-1.5,0-2.7-0.1-6c-0.1-2.8-0.1-4.3-0.1-6
	c0-6.8,0.5-11.6,2.1-15.3c1.9-4.7,5.4-7.2,10.7-7.2c7.7,0,16.8-2.6,23.9-7.1C77.9,8.3,81.7,4.4,83.7,0L83.7,0z M366.3,0h1
	c1.9,10,2.2,12.7,2.3,18.3c1.2,9.2,1.3,18.6,0.4,27.8c-1,8.8-3.1,16-6.6,21.2c-11.3,16.5-39.8,29.2-66.4,29.2
	c-5.1,0-10.5,0.3-16.3,0.8c-8.2,0.8-16.3,1.9-24.4,3.2c-21.6,3.3-27.7,4-36.3,4c-6.9,0-12.2-1.1-21.7-3.9l-2.8-0.8
	c-1.4-0.4-2.5-0.7-3.6-1c-8-2.1-14.2-2-21.7,0.7c-4,1.4-7.3,4.4-9.2,8.2c-1.6,3.1-2.5,6.1-4,12.8c-1.5,6.6-2.3,9.5-4,12.6
	c-2,4-5.5,7.1-9.9,8.4c-3.2,1-6.4,2.1-9.5,3.4c-6.6,2.8-10.1,5.6-13.8,10.5c-1.3,1.8-1,1.3-5.4,7.9c-2,3-4.7,5.8-8.5,9.1
	c-2,1.8-10.7,8.8-12.9,10.7c-7.4,6.4-12.6,12.1-16.6,19.1c-4.2,7.3-7.8,18.3-11.3,33.3c-0.9,3.7-1.7,7.6-2.6,12.1l-1.2,5.8l-1.1,5.4
	c-1.8,9-2.8,13.3-3.8,16.3c-6.8,20.4-17.3,42.2-27.1,51.2c-5.1,4.7-8.1,7.1-11.1,8.9c-0.9,0.5-1.8,1-2.9,1.6
	c-0.4,0.2-9.6,4.4-14.1,6.7L0,344.1V343l0.8-0.4c4.5-2.3,13.7-6.4,14.1-6.6c1-0.5,1.9-1,2.8-1.5c2.9-1.8,5.9-4.1,10.9-8.7
	c9.7-8.9,20.1-30.5,26.9-50.8c1-2.9,1.9-7.2,3.7-16.1l1.1-5.5c1.2-6,2.4-12,3.8-18c3.5-15.1,7.1-26.1,11.4-33.5
	c4.1-7.1,9.4-13,16.8-19.4c2.2-1.9,10.9-8.9,12.9-10.7c3.8-3.3,6.4-6.1,8.3-8.9c4.4-6.6,4.1-6.2,5.5-8c3.8-5,7.5-7.9,14.2-10.8
	c2.6-1.1,5.7-2.2,9.6-3.5c4.1-1.2,7.4-4.1,9.3-7.9c1.6-3,2.4-5.8,4-13c1.4-6.3,2.3-9.3,4-12.5c2-4,5.5-7.1,9.7-8.7
	c7.7-2.8,14.1-2.8,22.3-0.8c1.1,0.3,2.3,0.6,3.7,1l3.7,1.1c8.5,2.5,13.7,3.6,20.5,3.6c8.6,0,14.7-0.8,36.2-4
	c8.1-1.3,16.2-2.4,24.4-3.2c5.9-0.5,11.3-0.8,16.4-0.8c26.3,0,54.5-12.6,65.6-28.8c3.4-5,5.5-12.1,6.5-20.7c0.8-7.7,0.7-16,0-23.9
	c-0.2-1.7-0.3-3.4-0.6-5.1C368.5,12.5,368.2,10.1,366.3,0L366.3,0z M18.9,0h1c-1.9,7.6-2.8,10.2-5.4,16.2c-1.9,4.4-2.7,9.2-2.4,14.9
	c0.2,4.3,0.7,7.7,2.3,16.1c1.1,5.9,1.6,8.8,1.9,12.2c1,8.9,0.2,16.1-2.8,22.8C9.3,91.4,4.8,100.5,0,109.4v-2.1
	c4.4-8.4,8.6-16.9,12.5-25.5c3-6.5,3.7-13.5,2.7-22.3c-0.4-3.4-0.8-6.3-1.9-12.1c-1.6-8.5-2.1-11.9-2.3-16.3
	c-0.3-5.8,0.5-10.8,2.5-15.3C16.2,9.9,17,7.3,18.9,0z M299.4,0c-1.3,3.9-3,7.6-4.9,11.2c-2.6,4.7-4,8.4-4.9,12l-0.4,1.8l-0.3,1.5
	c-0.1,0.7-0.4,1.4-0.7,2.1c-0.7,1-1.9,1.3-5.1,1.3c0.9,0-9.9-0.3-15-0.3c-10.2,0-18.4,0.8-29.5,2.6c-16.9,2.7-17.7,2.8-23.7,2.5
	c-2.7-0.1-5.4-0.5-8-1.1c-17.7-4.2-46.2-5.9-54.7-3c-2.7,0.9-5.9,2.8-9.5,5.6c-2.2,1.7-4.4,3.6-6.5,5.5c-1.4,1.3-9.2,8.5-10.8,9.8
	c-1.4,1.2-8.2,7.4-8.8,8c-1.5,1.3-3,2.6-4.6,3.9c-5,4-8.9,6.2-11.9,6.2c-3.5,0.1-4.3,0-5.1-0.4c-1.1-0.6-1.5-1.7-1.1-3.6
	c0.7-3.6,4.5-10.8,12.8-24.8c5.7-9.5,9.4-18,11.8-26.2c1.4-5,1.9-7.4,3-14.5h1c-1.1,7.3-1.5,9.7-3,14.8c-2.4,8.3-6.2,16.9-11.9,26.4
	c-8.3,13.8-12,21-12.7,24.5c-0.3,1.4-0.1,2.1,0.6,2.5c0.6,0.3,1.3,0.3,3.5,0.3c3.9,0,7.7-2.1,12.5-6c1.4-1.1,2.9-2.4,4.5-3.9
	c0.7-0.6,7.4-6.8,8.9-8c1.6-1.3,9.3-8.5,10.8-9.8c2.4-2.2,4.6-4,6.6-5.5c3.7-2.8,7-4.8,9.8-5.7c8.8-2.9,37.4-1.2,55.3,3
	c2.6,0.6,5.1,1,7.8,1.1c5.8,0.3,6.7,0.1,23.5-2.5c11.1-1.8,19.4-2.6,29.6-2.6c5.2,0,16,0.3,15,0.3c2.9,0,3.8-0.2,4.3-0.8
	c0.2-0.3,0.4-0.8,0.6-1.7l0.3-1.4l0.4-1.9c0.9-3.6,2.4-7.4,5-12.2c1.9-3.4,3.4-7,4.7-10.8L299.4,0L299.4,0z M290.8,0
	c-5.9,17.9-9.5,22-19.8,22c-4.5,0-10.2,0.3-28.7,1.5l-1.5,0.1c-15.6,1-23.5,1.4-28.8,1.4c-5.4,0-13.2-1-28.9-3.3l-1.5-0.2
	C163.2,18.8,157.5,18,153,18c-4.4,0-7.3,1-11,3.3c-0.1,0.1-1.8,1.2-2.3,1.5c-2.4,1.5-4.3,2.2-6.7,2.2c-2.8,0-4.1-1.5-4.1-4.2
	c0-1,0.2-2.3,0.5-4.1c0.2-0.8,0.9-4.4,1.1-5.3c0.8-4.1,1.3-7.7,1.5-11.4h2c-0.2,3.8-0.7,7.5-1.5,11.8c-0.2,0.9-0.9,4.5-1.1,5.3
	c-0.3,1.2-0.4,2.5-0.5,3.7c0,1.7,0.5,2.2,2.1,2.2c2,0,3.6-0.6,5.7-1.9c0.5-0.3,2.1-1.4,2.3-1.4c4-2.5,7.2-3.7,12-3.7
	c4.6,0,10.3,0.7,28.9,3.5l1.5,0.2C198.9,22,206.8,23,212,23c5.3,0,13.1-0.4,28.6-1.4l1.5-0.1c18.5-1.2,24.2-1.5,28.8-1.5
	c9,0,12.1-3.4,17.7-20H290.8z M141.5,0h1.1c-2.1,3.9-2.6,5.1-2.8,6.2c-0.1,1.1,0.4,1.6,2.3,2C144,8.4,146,8.5,153,8.5
	c6,0,13,0.6,21.4,1.6c3.9,0.5,8,1.1,13.1,1.9c24,3.7,22.5,3.5,26.8,3.5c24,0,51.8-2.2,60.4-6.9c2.9-1.6,5-4.5,6.6-8.6h1.1
	c-1.6,4.5-4,7.7-7.2,9.4c-8.8,4.8-36.7,7.1-60.9,7.1c-4.4,0-2.8,0.2-27-3.5c-5.1-0.8-9.2-1.4-13.1-1.9c-8.3-1.1-15.3-1.6-21.2-1.6
	c-7,0-9.1-0.1-11-0.4c-2.4-0.4-3.4-1.3-3.1-3.1C139,4.8,139.6,3.6,141.5,0L141.5,0z M217.9,0c5.7,1.6,10.4,2.5,14.1,2.5
	c9.6,0,16.7-0.7,22.4-2.5h3c-6.3,2.5-14.2,3.5-25.4,3.5c-4.5,0-10.3-1.2-17.5-3.5H217.9L217.9,0z M70.7,0c-2.9,3.3-7,5.4-12,6.5
	c-4,0.9-7.5,1.1-12.9,1c-0.6,0-1.2,0-1.8,0c-5.4,0-8.9-1.2-10.1-5c-0.3-0.8-0.4-1.7-0.4-2.5h1c0,0.8,0.1,1.6,0.4,2.2
	c1,3.2,4.1,4.3,9.1,4.3h1.8c5.3,0.1,8.8-0.1,12.7-1c4.5-1,8.2-2.8,10.9-5.6L70.7,0L70.7,0z M0,207.9c7.3-0.2,11.5,3.3,11.5,11.1
	c0,11.4-5.1,28.4-11.5,41.5v-2.3c5.9-12.7,10.5-28.5,10.5-39.2c0-7.2-3.7-10.3-10.5-10.1V207.9L0,207.9z M0,214.9
	c1.2,0.1,2.2,0.6,2.9,1.3c1.4,1.5,1.6,3.7,1.2,7.6l-0.2,1.3c-0.2,1.3-0.3,2.6-0.4,3.9c0,3.2-1.5,9.5-3.5,15.9v-3.4
	c1.5-5.1,2.5-9.9,2.5-12.4c0-1,0.1-1.8,0.4-4l0.2-1.3c0.4-3.6,0.2-5.6-0.9-6.8c-0.5-0.5-1.2-0.9-2.2-1C0,216,0,214.9,0,214.9z
	 M0,410.9v-1.5c1.2-1.4,2.2-3,3-4.7c1.3-2.7,2.7-6.3,4.6-11.9c7.8-23.5,7.8-26.6,0.3-30.4C5.5,361.3,3,361,0,361.5v-1
	c2.8-0.6,5.7-0.2,8.2,1c8.2,4.1,8.3,7.6,0.3,31.6c-1.9,5.7-3.3,9.3-4.6,12C2.9,407.3,1.6,409.2,0,410.9z M33.6,452
	c1.7,0,3-0.2,8.3-1.3l2.4-0.5c8.3-1.6,12.7-1.3,14.5,2.3c1.4,2.8-0.5,5.9-4.8,9.7c-1.6,1.4-3.3,2.8-5.1,4.1
	c-0.9,0.7-4.9,3.6-5.8,4.3c-1.9,1.4-3,2.4-3.5,3c-1.3,1.7-2.2,3.5-2.9,5.5c0.1-0.2-4,13.6-7,22.2c-2.7,7.9-5.6,10.7-8.8,8.6
	c-2.1-1.4-3.7-4.2-6.6-11c-2-4.6-2.5-5.8-3.4-7.4c-4.6-8.2-3.9-23.9-0.1-32.9c1.2-3,3.8-5.3,7-6c2.6-0.7,4.9-0.8,11.8-0.7L33.6,452
	L33.6,452z M33.6,454c-1.1,0-2.1,0-3.8,0c-12.1-0.1-14.8,0.6-16.9,5.4c-3.6,8.5-4.3,23.5-0.1,31.1c1,1.7,1.5,2.9,3.5,7.6
	c2.7,6.3,4.2,9.1,5.9,10.1c1.6,1.1,3.5-0.8,5.8-7.5c2.4-7.4,4.8-14.8,7-22.2c0.7-2.2,1.8-4.2,3.2-6c0.7-0.9,1.8-1.9,3.9-3.4
	c0.9-0.7,4.9-3.6,5.8-4.3c2-1.5,3.6-2.8,5-4c3.6-3.2,5.1-5.7,4.3-7.3c-1.2-2.4-5.1-2.6-12.4-1.3l-2.3,0.5
	C36.9,453.8,35.5,454,33.6,454L33.6,454z M379.3,600c-3.5-12.3-3.8-14.1-3.8-19c0-3.3-0.1-6.3-0.4-11.3c-0.6-10.3-0.6-13.5,0.3-17.1
	c1.2-4.7,4.2-7.1,9.7-7.1h26c4.1,0,5.2,1.8,5.9,7.1c0.1,0.8,0.1,1,0.2,1.3c0.8,5.3,2.8,7.6,8.9,7.6c3.6,0,5.5,0.4,6.4,1.4
	c0.8,0.8,0.8,1.4,0.4,3.9c-0.9,5.3,0.5,8.8,7.5,13.8c6.3,4.5,11.6,5.4,16.5,3.4c3.8-1.5,6.7-4.2,11.9-10l1.1-1.2l1.1-1.2
	c0.9-1,1.8-1.9,2.7-2.9c2.8-2.8,6-5,9.6-6.7c1.5-0.8,1.7-0.9,5.7-2.6c6.1-2.7,9-4.5,11.7-7.6c2.6-3,4.7-4.8,6.7-6
	c3.2-1.8,5.5-2.1,13.7-2.1c6,0,10.6-4.3,18-15l2.8-4c1.1-1.5,1.9-2.7,2.8-3.8c7.9-10.1,19.4-10.4,30.7,1
	c5.5,5.5,10.2,19.4,13.6,38.5c2.5,13.8,4.2,29.5,4.5,39.8h-1c-0.3-10.3-2-26-4.5-39.7c-3.4-18.9-8-32.7-13.4-38
	c-11-11-21.8-10.7-29.3-1c-0.8,1.1-1.7,2.3-2.8,3.8l-2.8,4c-7.7,11-12.4,15.4-18.8,15.4c-8,0-10.2,0.3-13.2,2
	c-1.9,1.1-3.9,2.9-6.5,5.8c-2.9,3.3-5.9,5.1-12.1,7.9c-1.9,0.8-3.8,1.7-5.6,2.6c-3.4,1.7-6.6,3.9-9.3,6.5c-1.3,1.3-2.6,2.7-3.8,4
	l-1.1,1.2c-5.3,6-8.3,8.6-12.3,10.3c-5.3,2.1-10.9,1.2-17.5-3.5c-7.3-5.2-8.8-9.2-7.9-14.8c0.3-2.1,0.3-2.6-0.1-3.1
	c-0.6-0.7-2.3-1-5.7-1c-6.6,0-9-2.6-9.9-8.4l-0.2-1.3c-0.7-4.8-1.5-6.2-4.9-6.2h-26c-5,0-7.6,2-8.7,6.3c-0.9,3.4-0.9,6.6-0.2,16.8
	c0.3,3.8,0.4,7.6,0.4,11.4c0,4.8,0.3,6.6,3.8,19L379.3,600L379.3,600z M393,600c-1.3-6.6-1.6-10.7-1.4-14.8c0-0.7,0.1-1.4,0.2-2.4
	l0.2-2.6c0.3-3.8,0.5-7,0.5-11.2c0-4.9,1.5-7.8,4.2-8.4c2.4-0.6,5.6,0.5,9.2,3c6.6,4.5,14,13.1,16.5,19.2
	c4.8,11.4,14.1,15.7,33.5,15.7c8.6,0,14.3-2.3,20.7-7.9c1.5-1.3,15.1-15,21-20c7.2-6.1,11.8-7.6,20.6-8.3c5.5-0.5,8-0.9,11.4-2.4
	c4.6-2,9.4-5.5,14.9-11.3c7.4-7.8,13.3-8.9,17.5-4.3c3.3,3.6,5.5,10.6,6.8,20.2c0.7,5.2,0.9,7.7,1.6,17.4c0.3,3.8,0.2,5.3-0.9,18h-1
	c1.1-12.7,1.2-14.3,0.9-18c-0.6-9.6-0.8-12.2-1.6-17.3c-1.3-9.5-3.4-16.3-6.6-19.7c-3.8-4.1-8.9-3.1-16,4.3
	c-5.7,5.9-10.5,9.5-15.3,11.5c-3.6,1.5-6.1,2-11.6,2.4c-8.8,0.7-13.2,2.2-20.2,8.1c-5.9,5-19.5,18.7-21,20
	c-6.5,5.7-12.5,8.1-21.3,8.1c-19.8,0-29.5-4.4-34.5-16.3c-2.5-6-9.7-14.4-16.2-18.8c-3.4-2.3-6.4-3.3-8.4-2.9
	c-2.2,0.5-3.4,2.9-3.4,7.5c0,4.3-0.2,7.5-0.5,11.3l-0.2,2.6c-0.1,0.9-0.1,1.7-0.2,2.3c-0.2,4.1,0.1,8.2,1.4,14.8L393,600L393,600z
	 M506.7,600c2.5-3.3,8.9-11.8,10.9-14.3c5.5-7,13-12.4,19.4-13.9c7-1.7,11.5,1.5,11.5,9.2c0,4,0,5.2-0.7,19h-1
	c0.7-13.8,0.7-15,0.7-19c0-7.1-3.9-9.8-10.3-8.3c-6.1,1.5-13.5,6.8-18.8,13.6c-1.9,2.4-7.6,10.1-10.4,13.7H506.7L506.7,600z
	 M496.8,261c3.4,2.7,7,5.1,11.4,7.8c1.1,0.6,8.4,4.9,10.3,6.1c11.3,7,15,13.4,12.3,25.3c-1.5,6.5-4.5,11.1-9.4,14.4
	c-3.8,2.6-8.1,4.3-16.1,6.6c-12,3.5-13.7,4-18.8,6.3c-2.7,1.2-5.3,2.6-7.8,4.2c-11.1,7.1-19.1,7.7-28,3.3c-3.6-1.8-17.2-11-17.2-11
	c-1.7-1.1-3.4-2.1-5.2-3.1c-16-8.8-34.3-24.2-34.5-31.9c-0.1-3.5,2-6.6,6.3-10.3c1-0.9,2.2-1.8,3.7-3c0.7-0.5,3.4-2.6,3.9-3
	c4.5-3.4,7.2-5.8,9.3-8.5c11.1-13.8,26.5-28.7,34.4-32.3c12.1-5.5,19.8-5.8,27.4,0.1c3.3,2.5,5.6,6.5,8.6,13.4
	c0.3,0.6,2.3,5.4,2.9,6.7c1.6,3.6,2.9,5.8,4.2,6.9C495.4,259.8,496.1,260.4,496.8,261L496.8,261z M493.4,260.8
	c-1.6-1.4-3-3.7-4.8-7.6c-0.6-1.3-2.6-6.1-2.9-6.8c-2.8-6.5-5.1-10.3-8-12.6c-6.8-5.4-13.9-5.1-25.3,0.1
	c-7.5,3.4-22.7,18.1-33.6,31.7c-2.3,2.8-5.1,5.3-9.7,8.8l-3.9,3c-1.2,0.9-2.4,1.9-3.6,2.9c-3.9,3.3-5.7,6-5.6,8.7
	c0.2,6.6,18.1,21.7,33.5,30.1c1.8,1,3.5,2,5.3,3.1c0.1,0.1,13.6,9.2,17,10.9c8.2,4.1,15.5,3.5,26-3.2c2.6-1.6,5.3-3.1,8.1-4.3
	c5.3-2.4,7-2.9,19.1-6.4c7.8-2.2,11.9-3.8,15.5-6.3c4.4-3,7.2-7.2,8.6-13.2c2.4-11-0.8-16.6-11.5-23.2c-1.9-1.2-9.2-5.4-10.3-6.1
	c-4.5-2.7-8.1-5.1-11.6-7.9C494.8,262,494.1,261.4,493.4,260.8L493.4,260.8z M87.7,241.6c4.3-3,7.9-5,12.1-6.9
	c0.8-0.4,1.7-0.8,2.8-1.2l4.4-1.9c6.1-2.6,12-5.6,17.7-9c9-5.3,18.3-10.1,27.9-14.5c4.2-1.9,21.9-9.8,21.2-9.5
	c19.2-8.6,28.1-6.9,49.5,8.1c7.9,5.5,13.2,13.3,16.4,22.7c3,8.8,3.8,16.5,3.8,27.8c0,8.3-0.7,13-3.7,19
	c-4.2,8.4-12.3,16.1-25.6,23.5c-24.4,13.5-38.8,27.5-52.8,47.8c-8.8,12.8-47.8,44.2-65.2,54.1C75,413.5,48.9,423.5,31,423.5
	c-10,0-14.7-4.8-14.8-13.4c-0.1-6.3,2.1-13.7,6.3-24.3c3-7.4,2-12.9-2.2-22.3c-3.2-7.2-3.9-9.1-3.9-12.5s1.9-6.9,5.5-11.1
	c2.6-3,3.5-3.8,11.9-11.5c5.1-4.7,8.1-7.6,10.7-10.8c9.5-11.4,12.6-19.5,17.9-44.8c3.1-15,6.6-20.3,15.1-25.3
	c0.8-0.5,3.9-2.3,4.7-2.7C84.2,243.9,86,242.8,87.7,241.6L87.7,241.6z M88.3,242.4c-1.8,1.2-3.6,2.4-5.4,3.4l-4.7,2.7
	c-8.2,4.8-11.6,9.8-14.7,24.6c-5.3,25.5-8.5,33.7-18.1,45.2c-2.7,3.2-5.7,6.2-10.8,10.8c-8.4,7.6-9.2,8.5-11.8,11.4
	c-3.5,4-5.3,7.4-5.3,10.4c0,3.2,0.7,5.1,3.8,12.1c4.3,9.6,5.2,15.4,2.2,23.1c-4.2,10.5-6.3,17.8-6.2,23.9
	c0.1,8.1,4.3,12.4,13.8,12.4c17.7,0,43.7-9.9,64.8-21.9c17.3-9.9,56.1-41.2,64.8-53.9c14.1-20.4,28.6-34.6,53.2-48.2
	c13.1-7.2,21.1-14.9,25.2-23c2.9-5.9,3.6-10.4,3.6-18.5c0-11.1-0.7-18.7-3.7-27.4c-3.1-9.2-8.4-16.8-16.1-22.2
	c-21.1-14.8-29.7-16.4-48.5-7.9c0.7-0.3-17,7.6-21.2,9.5c-1.7,0.8-3.3,1.6-4.9,2.3c-7.8,3.7-15.5,7.8-22.9,12.2
	c-5.8,3.4-11.7,6.4-17.8,9l-4.4,1.9c-1,0.4-1.9,0.8-2.8,1.2C96.1,237.5,92.1,239.8,88.3,242.4z M80.7,254.6
	c7.7-6.3,12.3-8.2,23.7-11.3c6.1-1.7,9.1-2.9,12.3-5.7c3.8-3.3,7.5-4.5,15.9-6.1c2.8-0.5,3.7-0.7,5.1-1c5.5-1.2,9.5-2.9,13.1-5.9
	c10.4-8.5,25.4-14.1,36.3-14.1c5.3,0,16.8,7.6,25.7,17.2c10.7,11.5,16,23.3,12.7,32.5c-3.2,9.1-11.4,18.6-23,27.9
	c-8.4,6.7-18.4,13-25.2,16.4c-3.7,1.9-6.6,4.9-9.8,10c-0.7,1.1-11.1,20.3-16,27.8c-5.6,8.6-15.4,17.4-30.2,28
	c-3,2.2-6.1,4.3-9.2,6.4c-0.1,0.1-6.8,4.6-8.6,5.9c-6.5,4.5-10.3,7.4-13.1,9.8c-11.6,10.7-37.1,15.5-43.7,9c-2-2-2.2-4.1-2-10.5
	c0.4-9.4-0.5-14.5-5-20.5c-2-2.6-4.4-5-7-6.9c-3.9-3-6.1-6.1-6.6-9.5c-1-6.6,3.9-13.1,14.2-21.7c1.6-1.3,6.7-5.4,7.1-5.8
	c1.9-1.5,3.6-3.1,5.2-4.8c4.1-4.6,5.8-9.5,7.8-20.1c0.3-1.5,0.5-2.9,0.8-4.4c0.3-1.9,0.6-3.3,0.9-4.7c0.7-3.8,1.5-7.2,2.4-10.6
	c1-3.8,1.4-5.5,2.4-10.4c0.6-3,0.9-4.2,1.6-5.5C69.7,263.6,69.7,263.5,80.7,254.6L80.7,254.6z M81.3,255.4
	c-10.8,8.7-10.9,8.8-12,11.1c-0.6,1.2-0.9,2.3-1.5,5.2c-1,4.9-1.4,6.6-2.4,10.4c-0.9,3.4-1.7,6.8-2.4,10.6c-0.5,2.3-0.9,4.6-1.3,7
	l-0.4,2.1c-2,10.7-3.8,15.7-8,20.5c-1.7,1.8-3.4,3.4-5.3,4.9c-0.4,0.3-5.5,4.5-7.1,5.8c-10,8.4-14.7,14.6-13.8,20.8
	c0.5,3.1,2.4,6,6.2,8.8c3,2.3,5.4,4.6,7.2,7.1c4.6,6.2,5.5,11.5,5.2,21.1c-0.3,6.1,0,8.1,1.7,9.8c6.1,6.1,31,1.3,42.3-9
	c2.8-2.5,6.7-5.4,13.2-9.9l8.6-5.9c3.6-2.5,6.4-4.4,9.2-6.4c14.7-10.5,24.4-19.2,30-27.7c4.9-7.5,15.3-26.7,16-27.8
	c3.3-5.3,6.3-8.4,10.2-10.4c6.8-3.4,16.6-9.6,25-16.3c11.5-9.2,19.6-18.5,22.7-27.4c3.1-8.8-2-20.3-12.5-31.5
	c-8.8-9.4-20-16.8-25-16.8c-10.7,0-25.4,5.5-35.7,13.9c-3.8,3.1-7.9,4.8-13.5,6.1c-1.4,0.3-2.4,0.5-5.1,1
	c-8.2,1.6-11.8,2.7-15.4,5.9c-3.3,2.9-6.4,4.2-12.7,5.9C93.4,247.4,88.9,249.3,81.3,255.4L81.3,255.4z M212,251.9
	c0,7.6-0.6,10.9-2.6,14.3c-1.1,1.8-7.7,10-8.6,11.3c-6,7.9-9.3,10.3-17.3,13.8c-1.3,0.6-2.2,1-3,1.5c-0.6,0.3-1.2,0.7-2,1
	c-0.7,0.3-4.5,1.9-5.5,2.4c-6.1,2.8-9,5.8-9,10.7c0,11-18.9,36.1-34.5,44.9c-8.2,4.6-21.3,9.4-32.8,11.9
	c-13.3,2.9-22.5,2.5-24.6-2.3c-1.3-3-4.4-4.3-12-5.8l-0.6-0.1c-4.8-1-6.9-1.5-9-2.6c-2.9-1.5-4.5-3.7-4.5-6.8c0-2.7,1.1-5.8,3.3-9.7
	c0.8-1.5,1.8-3.1,3.2-5.4c-0.2,0.3,2.8-4.4,3.7-5.8c6.7-10.7,9.8-18.5,9.8-27.2c0-18.4,11.2-33.4,27.5-42.9
	c5.2-3.1,9.2-3.3,15.2-2.1c5,1,6.1,0.9,7.4-1.5c4.5-7.9,7-9.5,15.9-9.5c3.9,0,7-1,10.5-3.2c1.6-1,8.7-6.2,11-7.7
	c9.2-6,11.3-7,25.2-11.9c6.9-2.5,15.2,1.3,22.3,9.1C207.5,235.4,212,244.8,212,251.9L212,251.9z M210,251.9
	c0-6.5-4.3-15.5-10.5-22.3c-6.7-7.3-14.2-10.7-20.2-8.6c-13.7,4.9-15.7,5.9-24.8,11.8c-2.2,1.5-9.4,6.7-11,7.7
	c-3.8,2.4-7.2,3.5-11.5,3.5c-8.1,0-10,1.2-14.1,8.5c-1.1,1.9-2.5,2.9-4.3,3.1c-1.3,0.1-1.9,0.1-5.2-0.6c-5.5-1.1-9.1-0.9-13.8,1.9
	c-15.8,9-26.6,23.4-26.6,40.9c0,9.2-3.3,17.3-10.2,28.3l-3.7,5.8c-1.4,2.2-2.3,3.8-3.2,5.3c-2,3.6-3,6.4-3,8.7
	c0,4.2,2.9,5.7,11.9,7.5l0.6,0.1c8.3,1.7,11.7,3.1,13.4,7c3.2,7.1,36,0,54.6-10.5c15-8.4,33.5-33,33.5-43.1c0-5.9,3.5-9.5,10.2-12.5
	c1.1-0.5,4.9-2.1,5.5-2.4c0.7-0.3,1.3-0.6,1.8-0.9c0.9-0.5,1.9-1,3.3-1.6c7.6-3.4,10.8-5.5,16.5-13.1c1-1.4,7.5-9.4,8.5-11.1
	C209.5,262.1,210,259.1,210,251.9L210,251.9z M172.8,229.5c0.1-0.1,2.4-1.5,2.9-1.8c1-0.6,1.7-0.9,2.4-1.2c2.6-0.8,5.1-0.1,11,3.1
	c14.9,8,19.4,22.9,9.2,38.7c-4,6.2-9.4,9-18.7,11.1c-0.9,0.2-1.2,0.3-3.1,0.7c-6,1.3-8.8,2.1-11.6,3.6c-3.6,2-6.1,5-7.5,9.4
	c-7.9,24.9-19.7,43.3-36.3,50.3c-16.4,6.9-21.1,8.5-28,8.9c-4.9,0.3-9.8-0.6-15.4-2.9c-1.9-0.7-3.8-1.6-5.6-2.6
	c-4-2.3-5.1-4.7-4.5-9.3c0.3-2.1,3.8-15.5,4.8-20.6c0.6-3,1.2-6.1,1.8-9.7c0.5-3,0.9-5.9,1.3-8.9c1.4-9.4,2.5-14.3,4.5-18.6
	c2.5-5.4,6.1-9,11.7-11.1c6.6-2.5,10.5-3.1,18-3.5c4.8-0.3,6.7-0.6,9-2c0.6-0.4,1.2-0.8,1.8-1.3c1.2-1,2.3-2.2,3.4-3.4
	c0.6-0.7,2.4-2.9,2.6-3.2c3.4-4,6.3-5.5,12.3-5.5c3.9,0,5.9-0.9,8.2-3.4c-0.2,0.2,2.8-3.1,3.9-4.2c2-2,4.3-3.7,6.8-5
	c1.5-0.8,3.1-1.6,5-2.4C166.3,233.1,169.6,231.4,172.8,229.5L172.8,229.5z M158.3,237.8c-2.4,1.3-4.6,2.9-6.6,4.8
	c-1.3,1.4-2.6,2.8-3.8,4.2c-2.5,2.6-4.7,3.7-8.9,3.7c-5.7,0-8.4,1.4-11.6,5.2c-0.2,0.3-2,2.5-2.6,3.2c-1.1,1.3-2.2,2.4-3.5,3.5
	c-0.7,0.5-1.3,1-2,1.4c-2.5,1.5-4.6,1.9-9.5,2.2c-7.4,0.4-11.3,1-17.7,3.5c-5.3,2-8.8,5.4-11.2,10.6c-1.9,4.3-3,9.1-4.4,18.4
	l-0.7,4.3l-0.7,4.6c-0.6,3.6-1.1,6.7-1.8,9.7c-1.1,5.2-4.5,18.5-4.8,20.6c-0.6,4.2,0.3,6.2,4,8.3c1.3,0.8,3.1,1.6,5.5,2.5
	c5.5,2.2,10.2,3,15,2.8c6.7-0.3,11.3-1.9,27.7-8.8c16.2-6.8,27.9-25,35.7-49.7c1.5-4.7,4.1-7.9,8-10c2.9-1.6,5.7-2.5,11.9-3.8
	c1.9-0.4,2.3-0.5,3.1-0.7c9.1-2.1,14.2-4.7,18.1-10.7c9.9-15.3,5.6-29.6-8.8-37.3c-5.8-3.1-8-3.8-10.3-3.1c-0.6,0.2-1.3,0.5-2.2,1.1
	c-0.6,0.3-2.8,1.7-2.9,1.8c-3.2,2-6.6,3.7-10.2,5.2C161.4,236.2,159.8,237,158.3,237.8L158.3,237.8z M115.9,270.5
	c16.1-2.9,26.4-1,32.5,6.2c5.1,5.9,1.1,21.4-5.9,35.5c-4.8,9.6-10.6,16.2-23.2,25.2c-14.2,10.1-35.5,12.2-40.7,3.9
	c-1.9-3-2.1-8.1-1.1-15.7c0.8-5.7,1.9-10.7,4.7-23l0.1-0.5c1.6-6.8,2.4-10.3,3.1-14.1c1.4-7.3,3.7-11.5,7.3-13.7
	c2.8-1.8,5.5-2.3,12.3-2.6C110.4,271.3,112.7,271.1,115.9,270.5L115.9,270.5z M116.1,271.5c-3.3,0.6-5.6,0.8-10.9,1
	c-6.6,0.3-9.2,0.8-11.8,2.5c-3.3,2.1-5.4,6.1-6.8,13.1c-0.8,3.8-1.6,7.4-3.2,14.2l-0.1,0.5c-2.9,12.2-3.9,17.3-4.7,22.9
	c-1,7.4-0.8,12.4,0.9,15.1c4.8,7.7,25.5,5.7,39.3-4.1c12.4-8.9,18.1-15.4,22.8-24.8c6.9-13.7,10.8-29,6.1-34.5
	C141.8,270.5,131.9,268.7,116.1,271.5z M132,276.5c7.1,0,10.7,3.1,11.3,8.7c0.4,4-0.4,8.1-2.8,15.9c-2.6,8.5-18.4,25.4-27.2,31.3
	c-7,4.7-20,5.7-26.6,1c-4-2.9-3.5-12.1,0-26.5c0.7-2.8,1.5-5.6,2.4-8.8c1-3.4,2-6.8,3.1-10.1l0.4-1.2c1.5-4.8,5.1-7.8,10.7-9.3
	c4.4-1.2,9.5-1.5,17.5-1.3l3.9,0.1C128.5,276.5,130,276.5,132,276.5z M132,277.5c-2,0-3.5,0-7.4-0.1l-3.9-0.1
	c-7.8-0.2-12.9,0.1-17.2,1.3c-5.3,1.4-8.7,4.2-10,8.6c-0.5,1.7-1.1,3.5-1.6,5.2c-0.7,2.2-1.3,4.2-1.8,6.1c-0.9,3.1-1.7,6-2.4,8.7
	c-3.4,13.9-3.9,22.9-0.4,25.4c6.2,4.4,18.7,3.5,25.4-1c8.7-5.8,24.3-22.5,26.8-30.7c2.3-7.7,3.1-11.7,2.7-15.6
	C141.7,280.2,138.6,277.5,132,277.5L132,277.5z M114.2,284.5c2.9,0.1,5.8,0.5,8.6,1.4c5.4,1.8,8.7,5,8.7,10.1
	c0,9.6-9.5,17.2-22.3,21.5c-9.8,3.3-13.6-1.8-11.7-16.5c0.8-6.3,3.8-10.7,8.2-13.5C108.3,285.9,111.2,284.8,114.2,284.5z
	 M113.6,285.6c-2.6,0.4-5.1,1.3-7.3,2.7c-4.2,2.6-7,6.8-7.8,12.8c-1.9,14.1,1.4,18.5,10.3,15.5c12.5-4.2,21.7-11.5,21.7-20.5
	c0-4.6-3-7.5-8-9.1c-2.7-0.9-5.4-1.3-8.2-1.4C114.1,285.5,113.9,285.5,113.6,285.6z M194.5,262.1c-2.7,9.8-14.9,9.9-26.7,3.3
	c-10.2-5.6-13.8-18-5-22.9c1.5-0.8,3-1.7,4.5-2.7l2-1.3c1.3-0.8,2.6-1.6,3.9-2.3c4.7-2.4,8.8-2.8,14-0.7
	C196.4,239.2,198.2,248.9,194.5,262.1L194.5,262.1z M173.7,237.1c-1.3,0.7-2.6,1.4-3.8,2.3l-2,1.3c-0.8,0.5-1.5,0.9-2.2,1.4
	c-0.8,0.5-1.6,1-2.4,1.4c-7.9,4.4-4.6,15.8,5,21.1c11.3,6.3,22.8,6.2,25.3-2.7c3.6-12.8,1.9-22-6.7-25.4
	C181.9,234.5,178.1,234.8,173.7,237.1L173.7,237.1z M191.5,249.3c0,5.7-2.4,9-6.6,10c-3.3,0.8-7.6,0-11.1-1.8l-1.9-0.9
	c-0.7-0.3-1.2-0.6-1.6-0.9c-4.1-2.4-4.1-5,0.3-10.9C177.4,235.6,191.5,237.5,191.5,249.3L191.5,249.3z M190.5,249.3
	c0-5.3-2.9-8.6-7.3-9.2c-4.2-0.6-9,1.4-11.8,5.2c-4.1,5.5-4.1,7.4-0.6,9.5c0.4,0.3,0.9,0.5,1.6,0.9l1.9,0.9
	c3.3,1.7,7.4,2.4,10.4,1.7C188.4,257.4,190.5,254.5,190.5,249.3L190.5,249.3z M387,530.3c0-12.8,2.4-16.7,18.5-29.8
	c2.4-1.9,4.9-3.7,7.6-5.2c2.6-1.5,5.3-2.8,8.5-4.2c1.2-0.5,2.5-1,4.1-1.7l3.9-1.6c9.4-3.8,13.7-6.7,16.6-12c1.2-2.2,2.2-4.4,3.2-6.8
	c0.5-1.3,1-2.6,1.5-3.8l0.3-0.7l0.6-1.4c3.2-8,6-12.1,12.7-16.5c1.8-1.2,3.4-2.5,5-4c1.4-1.3,2.7-2.8,3.9-4.3c0.3-0.3,2.5-3.2,3.2-4
	c3.5-4.1,6.5-5.9,11.5-5.9c3.1,0,5.6-0.6,9.6-2.1c5.4-2,6.5-2.3,9-2.2c2.5,0.1,4.9,1.3,7.2,3.6c1.3,1.3,5.5,5.8,6.5,6.8
	c5.1,5,9.4,6.9,17.8,6.9c4,0,8.1,0.2,12.1,0.5c15.9,0.9,21.9,0.6,25.3-2.2c6.9-5.8,11.6-2.7,11.6,7.8c0,10.7-8.6,20-19,20
	c-4.8,0-8.3,1.4-9.3,3.7c-1.1,2.5,0.7,6.1,6,10.6c13.6,11.3,11.2,20.8-7.6,20.8c-5.3-0.1-10.5,1.8-14.6,5.2
	c-3.3,2.7-5.8,5.9-9.8,11.8l-1.5,2.3c-3.1,4.6-5,7.1-7.3,9.4c-6.2,6.2-9.3,7.6-13,6.9l-1-0.2c-0.9-0.2-1.8-0.4-2.7-0.4
	c-1.6,0-2.4,0.7-8.2,6.2c-4.9,4.7-8.1,6.8-11.8,6.8c-1.3,0-3.5,1.2-6.5,3.5c-1.3,1-2.7,2.1-4.5,3.7l-4.9,4.3c-1.5,1.3-3,2.6-4.5,3.8
	c-9.3,7.6-15.6,10.2-20.2,6.5c-2.7-2.2-4.1-4.5-4.6-7.3c-0.4-2-0.3-3.6,0.3-7.3c0.9-5.8,0.6-8.4-1.8-11.6c-2.3-3-3-3.2-3.8-2.4
	c-0.3,0.3-1.4,1.6-1.6,1.9c-2.2,2.5-4.9,3.6-9,2.8c-4.6-0.8-5.6-4.1-4.7-10.1l0.2-1.6c0.6-3.7,0.7-4.9,0.3-5.8
	c-0.4-0.9-1.9-0.9-5.2,0.4l-0.7,0.3c-13.8,5.5-15.3,6.1-19.4,6.7C390.3,539,387,536.6,387,530.3L387,530.3z M389,530.3
	c0,5,2.1,6.6,7,5.9c3.9-0.5,5.4-1.1,19-6.5l0.8-0.3c4.2-1.7,6.7-1.5,7.8,0.6c0.7,1.4,0.6,2.8-0.1,7l-0.2,1.5c-0.7,5-0.1,7.3,3.1,7.8
	c3.4,0.6,5.4-0.2,7.1-2.2c0.2-0.2,1.3-1.7,1.7-2c1.9-2,3.8-1.3,6.8,2.5c2.9,3.7,3.2,6.8,2.2,13.1c-1,6.8-0.5,9.4,3.6,12.7
	c3.5,2.8,9.1,0.5,17.7-6.5c1.4-1.1,2.8-2.3,4.5-3.8l4.9-4.3c1.8-1.6,3.3-2.8,4.6-3.8c3.3-2.6,5.7-3.9,7.7-3.9c3,0,6-1.9,10.4-6.2
	l2.5-2.4c0.9-0.9,1.7-1.6,2.4-2.1c1.8-1.5,3.3-2.3,4.7-2.3c1,0,1.8,0.1,3.1,0.4c0.7,0.2,0.7,0.2,1,0.2c3,0.6,5.5-0.5,11.2-6.3
	c2.2-2.2,4.1-4.7,7.1-9.1l1.5-2.3c4.2-6.1,6.8-9.4,10.2-12.2c4.4-3.8,10.1-5.8,15.9-5.7c16.9,0,18.6-7,6.4-17.2
	c-5.9-4.9-8.1-9.4-6.5-12.9c1.4-3.1,5.7-4.8,11.2-4.8c9.3,0,17-8.3,17-18c0-8.9-2.9-10.8-8.4-6.2c-3.9,3.3-10,3.6-26.7,2.7l-1-0.1
	c-5.1-0.3-8-0.4-11-0.4c-8.9,0-13.8-2.1-19.2-7.5c-1-1-5.3-5.5-6.5-6.8c-2-2-3.9-2.9-5.9-3s-3.1,0.2-8.1,2.1
	c-4.1,1.5-6.9,2.2-10.3,2.2c-4.3,0-6.8,1.5-10,5.2c-0.6,0.7-2.9,3.6-3.2,4c-1.3,1.6-2.6,3.1-4,4.5c-1.6,1.6-3.4,3-5.2,4.2
	c-6.3,4.2-8.9,7.9-12,15.6l-0.6,1.4l-0.3,0.7c-0.5,1.3-1,2.6-1.6,3.9c-1,2.4-2.1,4.7-3.3,7c-3.2,5.9-7.8,9-17.6,13l-3.9,1.6
	c-1.6,0.6-2.8,1.1-4,1.7c-2.8,1.2-5.6,2.6-8.3,4.1c-2.6,1.5-5,3.2-7.4,5C391.1,514.8,389,518.2,389,530.3L389,530.3z M522.2,450.5
	c3.1,1.5,6.5,2,10.7,1.7c2.5-0.2,4.9-0.6,8.8-1.5c5.4-1.2,6.3-1.4,8.3-1.5c2.8-0.2,4.8,0.2,6.3,1.4c1.6,1.3,2,2.7,1.3,4.2
	c-0.7,1.4-1,1.7-5,5.1c-3.5,2.9-5,4.8-5,7.1c0,7.3,1.3,10,7.8,15.6c3.9,3.3,5.9,6.8,5.3,9.6c-0.8,3.3-5,5-12.6,5
	c-7.2,0-12.7,4.6-20,14.7c-0.5,0.7-4,5.6-4.9,6.9c-1.4,2-3,3.8-4.7,5.5c-1.1,1-2.1,1.7-3.1,2.2c-2.8,1.3-5,1.6-9.8,1.7
	c-7.7,0.3-10.9,1.5-15,7.1c-1.6,2.2-3.1,4-4.7,5.6c-2.6,2.6-5.5,4.8-8.6,6.7c-0.1,0.1-10.7,6.2-14.8,8.8c-3.8,2.4-6.5,2-8.2-0.8
	c-1.3-2-1.9-4.5-2.9-10.3c-0.8-5.1-1.3-7.1-2.1-8.9c-1-2.3-2.2-3.2-4-2.9c-6.2,1.2-9,1.4-11,0.2c-2.4-1.4-3.1-4.6-2.6-10.7
	c0.2-2-1-2.9-3.8-3c-2.2-0.1-4.9,0.2-9.9,1.1l-0.7,0.1c-8,1.5-10.7,1.7-12.7,0.7c-2.9-1.4-1.6-5.3,4.2-12.2
	c5.5-6.5,10.6-10.8,15.8-13.5c3.7-2,5.9-2.6,12.2-4.1c7.3-1.7,10.4-3.5,14-9.3c3-4.8,10.7-18.6,12.1-20.8c3.6-5.7,6.8-9.1,11-11.3
	c2.6-1.4,4.7-2.8,9.2-6.1l1.4-1c7.9-5.7,12.3-8,17.7-8c4.2,0,6.5,1.4,9.1,4.8c0.3,0.4,1.7,2.2,2,2.7c0.8,1.1,1.6,2,2.5,2.8
	C517.5,447.7,519.8,449.3,522.2,450.5L522.2,450.5z M521.8,451.4c-2.8-1.4-5-3-6.9-5c-0.9-0.9-1.7-1.8-2.5-2.9
	c-0.4-0.5-1.7-2.3-2-2.7c-2.5-3.2-4.5-4.4-8.3-4.4c-5.1,0-9.4,2.2-17.1,7.8l-1.4,1c-4.5,3.3-6.6,4.7-9.3,6.1
	c-4.1,2.1-7.2,5.5-10.7,11c-1.4,2.2-9.2,16-12.1,20.8c-3.8,6.1-7.1,8-14.7,9.8c-6.1,1.5-8.3,2.1-11.9,4c-5,2.7-10,6.9-15.5,13.3
	c-5.4,6.5-6.5,9.7-4.5,10.7c1.7,0.8,4.5,0.6,12.1-0.8l0.7-0.1c5.1-0.9,7.8-1.3,10.2-1.1c3.2,0.2,4.9,1.5,4.7,4.1
	c-0.5,5.8,0.2,8.6,2.1,9.8c1.7,1,4.3,0.9,10.3-0.3c2.4-0.5,4,0.8,5.1,3.5c0.8,2,1.3,4,2.1,8.8l0.1,0.4c0.9,5.7,1.5,8.1,2.7,10
	c1.5,2.3,3.5,2.6,6.8,0.5c4.1-2.7,14.7-8.8,14.8-8.8c3.1-1.8,5.9-4,8.5-6.5c1.7-1.7,3.2-3.5,4.6-5.5c4.3-6,7.8-7.2,15.7-7.5
	c4.7-0.2,6.8-0.5,9.5-1.7c0.9-0.4,1.8-1.1,2.8-2c1.7-1.6,3.2-3.4,4.6-5.4c1-1.3,4.4-6.2,4.9-6.9c7.5-10.3,13.2-15.1,20.8-15.1
	c7.2,0,11-1.6,11.6-4.2c0.5-2.3-1.4-5.5-5-8.6c-6.8-5.8-8.2-8.8-8.2-16.4c0-2.7,1.6-4.7,5.4-7.9c3.8-3.2,4.2-3.6,4.8-4.7
	c0.5-1.1,0.3-2-1-3c-2.2-1.9-4.7-1.6-13.8,0.4c-3.9,0.9-6.3,1.3-8.9,1.5C528.7,453.6,525,453,521.8,451.4L521.8,451.4z M493.8,447.5
	c5.6-2.8,9-2.2,12.9,1.4c0.6,0.5,2.6,2.5,3,2.9c4.2,3.9,8.1,5.7,14.3,5.7c11.4,0,14,1.4,16.1,8.1c0.3,0.8,1.3,4.6,1.7,5.6
	c0.8,2.6,1.6,5,2.7,7.6c2.1,5.2,2.6,8.3,1.7,10.2c-0.8,1.6-2.1,2.2-5.4,2.8c-2.3,0.4-2.8,0.5-3.8,0.9c-1.8,0.6-3.3,1.4-4.6,2.7
	c-1,1-2,2.1-3.3,3.7c-0.6,0.7-2.9,3.5-3.5,4.1c-7.2,8.5-12.4,12.4-19.6,12.4c-3.8,0-7,1.3-10.6,4c-1.8,1.4-11.6,10.3-15.2,13.1
	c-2.8,2.2-5.8,4.1-9,5.9c-4.6,2.5-7.4,3.2-9,2.2c-1.3-0.8-1.6-2.1-1.9-5.5c0-0.6-0.1-1.2-0.2-1.8c-0.5-4.7-2.2-6.9-7.2-6.9
	c-7.1,0-8.9-1.2-9.7-5.4c-1-4.6-2.1-6.7-6.5-9.7c-4-2.6-4.3-5.4-1.5-8.2c2-2,4.6-3.5,11.4-6.9c6.6-3.3,9.2-4.8,11.1-6.7
	c2-2,3.8-4.1,5.3-6.5c1-1.5,1.8-3,2.9-5.1l2.1-4.3c0.9-1.8,1.7-3.4,2.6-5C476.3,458.4,480.9,454,493.8,447.5L493.8,447.5z
	 M471.4,469.2c-0.9,1.6-1.7,3.1-2.6,4.9l-2.1,4.3c-0.9,1.8-1.9,3.5-2.9,5.2c-1.6,2.4-3.4,4.6-5.4,6.6s-4.6,3.5-11.4,6.9
	c-6.6,3.3-9.2,4.8-11.1,6.7c-2.3,2.3-2.1,4.4,1.4,6.7c4.7,3.1,6,5.5,7,10.3c0.8,3.7,2.1,4.6,8.8,4.6c5.5,0,7.6,2.6,8.1,7.8
	c0.1,0.5,0.1,0.8,0.2,1.8c0.3,3.1,0.5,4.2,1.5,4.7c1.2,0.7,3.7,0.1,8-2.3c3.1-1.7,6-3.7,8.8-5.8c3.5-2.7,13.3-11.7,15.2-13.1
	c3.8-2.8,7.2-4.2,11.2-4.2c6.8,0,11.8-3.7,18.8-12l3.5-4.1c1.1-1.3,2.2-2.5,3.4-3.7c1.4-1.4,3.1-2.4,5-2.9c1.1-0.3,1.6-0.5,4-0.9
	c3-0.5,4.1-1,4.7-2.2c0.8-1.6,0.3-4.5-1.7-9.4c-1-2.5-2-5.1-2.7-7.7c-0.3-1-1.4-4.8-1.7-5.6c-2-6.2-4.2-7.4-15.1-7.4
	c-6.5,0-10.6-1.9-15-6c-0.4-0.4-2.5-2.4-3-2.9c-3.6-3.3-6.5-3.9-11.8-1.2C481.5,454.8,477.1,459.1,471.4,469.2L471.4,469.2z
	 M527.3,481.2c-3,6.5-16.8,15.3-26.7,15.3c-5.3,0-7.6-3-7.1-7.9c0.3-3.5,2.1-7.9,3.9-10.6l1.5-2.3c0.6-0.9,1.2-1.8,1.9-2.7
	c3.7-4.8,7.9-7.5,13.6-7.5C523.5,465.5,530.2,475,527.3,481.2L527.3,481.2z M526.4,480.7c2.5-5.5-3.7-14.3-12-14.3
	c-5.4,0-9.3,2.5-12.8,7.1c-0.6,0.8-1.2,1.6-1.9,2.6c0,0-1.2,1.9-1.5,2.3c-1.7,2.6-3.5,6.9-3.8,10.1c-0.4,4.3,1.4,6.8,6.1,6.8
	C510.1,495.4,523.6,486.8,526.4,480.7L526.4,480.7z M456.7,501.5c2.1,0.2,4.4,0.8,5.9,1.8c2.1,1.5,2.2,3.6-0.3,6
	c-5.1,5.1-12.9,4.3-12.9-1.4C449.5,503.3,452.6,501.1,456.7,501.5L456.7,501.5z M456.6,502.5c-3.6-0.3-6.1,1.5-6.1,5.5
	c0,4.6,6.5,5.3,11.1,0.6c2-2,2-3.4,0.4-4.5C460.8,503.2,458.6,502.6,456.6,502.5L456.6,502.5z M486.2,276.5
	c4.6,2.4,17.3,8.2,19.4,9.4c2.7,1.4,5.1,3.3,7,5.6c1.4,1.6,2.6,3.4,3.8,5.2c2.4,3.8,0,7.7-6.2,11.6c-5,3.2-12.2,6.3-22,9.8
	c-4.8,1.7-19.6,6.7-21.1,7.2c-6.6,2.3-14.9,0.1-25.1-5.9c-3.9-2.3-8-5-12.9-8.5c-2.2-1.6-9.5-7-10.7-7.9c-2.8-2.1-5.6-4-8.6-5.7
	c-4.8-2.6-4.5-6.6,0.2-12.1c3.3-3.9,4.2-4.7,18.1-16.3c3-2.5,6-5.1,8.9-7.7c1.6-1.5,3.2-3.1,4.7-4.7c5.1-5.4,9.8-6.5,15-3.9
	c2.2,1.1,4.5,2.9,7.4,5.5c1.5,1.4,6.9,6.7,8,7.7C477.2,270.9,481.5,274.2,486.2,276.5L486.2,276.5z M485.8,277.4
	c-4.9-2.5-9.2-5.8-14.4-10.8c-1-1-6.5-6.3-8-7.7c-2.8-2.6-5.1-4.3-7.2-5.4c-4.8-2.4-9-1.4-13.8,3.7c-1.5,1.6-3.1,3.2-4.8,4.7
	c-2.5,2.3-5.2,4.6-8.9,7.8c-13.9,11.6-14.8,12.4-18,16.2c-4.3,5.1-4.6,8.4-0.5,10.6c2.2,1.2,4.9,3,8.7,5.8c1.2,0.9,8.5,6.2,10.7,7.9
	c4.1,3,8.4,5.9,12.9,8.5c10.1,5.8,18.1,8,24.3,5.8c1.5-0.5,16.3-5.5,21.1-7.2c9.7-3.5,16.9-6.6,21.8-9.7c5.8-3.7,7.9-7.1,5.9-10.3
	c-1.1-1.8-2.3-3.5-3.7-5.1c-1.9-2.2-4.2-4.1-6.8-5.4C503,285.7,490.4,279.8,485.8,277.4L485.8,277.4z M446.9,285.5
	c3.1-0.4,5.7-0.1,8.4,0.7c2.1,0.7,2.7,0.9,8.6,3.8c4.8,2.3,8.4,3.9,13.2,5.6c8.4,3,11.3,6.2,8.8,9.8c-2.1,2.9-8,5.9-17.8,9.2
	c-8.5,2.8-15.5,2.4-21.4-0.9c-4.6-2.5-8.3-6.5-12.1-12.3c-2.9-4.4-2.7-8.2,0.2-11.1C437.2,287.7,441.6,286.1,446.9,285.5
	L446.9,285.5z M447.1,286.5c-5.1,0.6-9.3,2.2-11.6,4.4c-2.5,2.5-2.7,5.8,0,9.8c3.7,5.7,7.3,9.5,11.8,12c5.7,3.1,12.4,3.6,20.6,0.8
	c9.6-3.2,15.4-6.1,17.3-8.8c1.9-2.8-0.5-5.5-8.4-8.2c-4.8-1.7-8.5-3.3-13.3-5.6c-5.8-2.8-6.4-3.1-8.5-3.7
	C452.5,286.3,449.7,286.1,447.1,286.5L447.1,286.5z M202.5,500.4c0,4.8-1.4,7.6-4.4,8.9c-2.3,1-4.6,1.2-10.8,1.2h-1.8
	c-9.2,0-17-7.6-17-15.5c0-7.6,10.6-10.5,19.7-5.4c2.8,1.5,4.2,1.9,8.6,2.8C201.3,493.1,202.5,494.6,202.5,500.4L202.5,500.4z
	 M201.5,500.4c0-5.3-0.9-6.3-4.9-7.1c-4.4-0.8-6-1.3-8.9-2.9c-8.6-4.8-18.3-2.1-18.3,4.6c0,7.3,7.4,14.5,16,14.5h1.8
	c6.1,0,8.3-0.1,10.4-1.1C200.3,507.2,201.5,504.8,201.5,500.4L201.5,500.4z M234.8,382.5c3.7-1.3,8.7-2.7,16.1-4.5
	c2.6-0.6,16.5-4,20.6-5c19.6-4.9,31.5-8.9,38.2-13.4c14.9-10,36.9-33.9,43.8-47.8c2.3-4.5,4.6-6.4,7.7-6.3c1.3,0.1,2.6,0.5,4.3,1.2
	c1.2,0.5,2.4,1.1,3.5,1.7l1.3,0.6c4.8,2.3,8.4,3.4,12.6,3.4c7.2,0,10,3.1,8.4,7.9c-1.4,4.1-5.9,8.9-11.1,12
	c-8.3,5-11.8,17.3-11.8,33.6c0,3.6-1.4,6.3-4,8.4c-2,1.6-4.2,2.6-8.5,4.2l-1,0.4c-4.9,1.8-7,2.8-8.7,4.5c-5.1,5.1-12.5,7.1-20.4,7.1
	c-1.4,0-2.5,0.9-4,3.1c-0.3,0.4-1.3,2-1.5,2.2c-2.7,3.9-4.9,5.7-8.5,5.7c-7.8,0-10.7,0.9-21.8,6.9c-5.2,2.8-8.8,3.6-14.7,3.7
	c-0.3,0-0.5,0-0.9,0c-4.8,0.1-7.1,0.3-10.5,1.3c-3,1-6,2.2-8.9,3.6c-2.2,1-10.5,5-10.2,4.9c-7.8,3.7-13.3,6-18.9,7.6
	c-12.4,3.5-18.6,2.2-27.4-4.1c-2.6-1.9-2.7-4.4-0.8-7.6c1.4-2.5,3.9-5.1,8.1-9l1.8-1.6c3.9-3.6,4.5-4.1,5.9-5.5
	c2.3-2.3,3.1-3.5,5.5-7.6c1.9-3.4,3.4-5.1,6.3-7.1C227.7,385.4,230.7,384,234.8,382.5L234.8,382.5z M235.2,383.5
	c-4,1.4-7,2.8-9.2,4.3c-2.8,1.9-4.1,3.5-6,6.7c-2.4,4.2-3.2,5.4-5.6,7.8c-1.4,1.4-2,2-5.9,5.6l-1.8,1.6c-4.1,3.8-6.5,6.4-7.9,8.8
	c-1.6,2.8-1.5,4.8,0.6,6.3c8.6,6.1,14.5,7.4,26.6,3.9c5.5-1.6,11-3.8,18.7-7.5c-0.3,0.1,8.1-3.9,10.2-4.9c2.9-1.4,5.9-2.6,9-3.6
	c3.5-1.1,5.9-1.3,10.8-1.4h0.9c5.7-0.1,9.2-0.8,14.2-3.6c11.2-6.1,14.2-7.1,22.2-7.1c3.2,0,5.2-1.6,7.7-5.3l1.5-2.2
	c1.7-2.4,3-3.5,4.8-3.5c7.6,0,14.8-2,19.6-6.9c1.8-1.8,4-2.9,9-4.7l1-0.4c8.6-3.1,11.8-5.7,11.8-11.6c0-16.6,3.5-29.2,12.2-34.4
	c5-3,9.4-7.7,10.7-11.5c1.4-4.1-0.8-6.6-7.4-6.6c-4.5,0-8.2-1.1-13.1-3.5c-7.5-3.7-6.8-3.3-8.7-3.4c-2.6-0.1-4.6,1.5-6.7,5.7
	c-7,14.1-29.1,38.1-44.2,48.2c-6.8,4.5-18.8,8.5-38.5,13.5c-4,1-18,4.4-20.6,5C243.8,380.8,238.8,382.2,235.2,383.5L235.2,383.5z
	 M252,387.5c2.1,0,4-0.2,7.3-0.7c5.2-0.8,6.6-0.9,8.5-0.5c2.5,0.6,3.8,2.4,3.8,5.7c0,4-2.3,7.3-6.6,10.1c-3.2,2.1-6.5,3.5-14.1,6.4
	l-0.3,0.1l-2.3,0.9c-3,1.2-5.3,2.5-9.3,5.4l-0.8,0.6c-8.2,5.9-13.4,8-23.1,8c-5,0-6.9-2-5.8-5.6c0.9-2.8,3.6-6.6,7.8-11.1
	c1.3-1.4,2.6-2.8,4.1-4.3c3.2-3.1,11.3-10.6,11.4-10.8c0.5-0.5,0.9-0.9,1.4-1.3c3.4-2.7,5.8-3.1,14.2-2.9
	C249.9,387.5,250.9,387.5,252,387.5L252,387.5z M252,388.5c-1.1,0-2.1,0-3.8,0c-8.2-0.1-10.4,0.2-13.5,2.7c-0.4,0.4-0.9,0.7-1.3,1.2
	c-0.2,0.2-8.3,7.7-11.4,10.8c-1.4,1.4-2.8,2.8-4.1,4.3c-4.1,4.5-6.8,8.1-7.6,10.8c-0.9,2.9,0.4,4.3,4.8,4.3c9.5,0,14.4-2.1,22.5-7.8
	l0.8-0.6c4.1-3,6.4-4.4,9.6-5.6l2.3-0.9l0.3-0.1c7.5-2.8,10.8-4.3,14-6.3c4.1-2.6,6.2-5.6,6.2-9.3c0-2.9-1-4.3-3-4.7
	c-1.6-0.4-3-0.3-8.1,0.5C256.1,388.3,254.1,388.5,252,388.5L252,388.5z M364.5,343.2c-1.9,5.4-2,6.8-1,12.8
	c1.2,7.1-1.4,16.6-5.5,16.6c-0.5,0-1,0-1.5,0.1h-0.6c-2.9,0.2-4.8,0.2-6.9-0.2c-6.5-1.1-10.4-5.1-10.4-13.4
	c0-13.9,2.1-19.7,8.1-26.3c1-1.2,1.8-2.4,2.5-3.8c0.6-1,2.8-5.1,2.7-5c4.4-8.1,7.7-11.5,12.3-10.4c1.2,0.3,2.2,0.8,3.6,1.6l1.4,0.8
	c1,0.6,2,1.2,3.1,1.6c0.7,0.3,1.8,0.3,4.8,0.3h0.7c3.2,0,4.8,0.1,5.8,0.7c1.6,0.9,1.2,2.6-1.1,4.9c-1.3,1.3-2.6,2.5-3.9,3.8
	C367.9,337.2,365.7,339.5,364.5,343.2L364.5,343.2z M363.5,342.8c1.3-3.9,3.5-6.2,14.3-16.5c1.5-1.5,2.7-2.6,3.9-3.7
	c1.9-2,2.2-2.9,1.4-3.3c-0.8-0.5-2.4-0.6-5.3-0.5h-0.7c-3.1,0.1-4.3,0-5.1-0.3c-1.1-0.4-2-0.9-3.3-1.7l-1.4-0.8
	c-1-0.7-2.1-1.1-3.3-1.5c-3.9-1-6.9,2.2-11.1,9.9c0.1-0.1-2.1,4-2.7,5c-0.7,1.4-1.6,2.7-2.6,3.9c-5.8,6.5-7.9,12-7.9,25.7
	c0,7.8,3.5,11.5,9.6,12.5c2,0.3,3.9,0.3,6.7,0.2c0.4,0,0.8,0,1.2-0.1c0.4,0,0.7,0,1,0c3.2,0,5.6-8.9,4.5-15.4
	C361.5,349.9,361.6,348.4,363.5,342.8L363.5,342.8z M354.3,355.3c0.6,0.5,2.5,1.9,2.5,1.9c2,1.6,2,3.3,0,6.4
	c-3.7,5.6-8.8,3.1-8.8-4.5c0-3.8,0.5-5.7,2.1-6C351.3,352.7,352.1,353.3,354.3,355.3L354.3,355.3z M352.9,356.7
	c-1.5-1.4-2.2-1.9-2.4-1.8c-0.2,0-0.5,1.2-0.5,4.1c0,5.9,2.7,7.2,5.2,3.5c1.5-2.3,1.5-2.8,0.4-3.7
	C355.6,358.8,353.6,357.4,352.9,356.7L352.9,356.7z M575.8,226.6c2.2-1.1,3.7-1.7,5.9-2.4l0.3-0.1c3-0.9,6-2.1,8.8-3.6
	c4.2-2.1,6.3-1.9,7,0.8c0.4,2,0.2,4-1.3,12.7c-2.3,13.6-9.2,26.1-21.2,36.3c-4.3,3.6-7.4,4.4-9.8,2.4c-1.9-1.6-3.1-4.6-4.6-10.5
	c-0.3-1.1-1.4-5.8-1.7-7c-0.8-3.1-1.7-6.2-2.7-9.2c-2.4-6.8-3-10.8-2.1-12.9c0.8-1.8,2.1-2.2,5.6-2.4c1.5-0.1,2.1-0.1,3-0.3l2-0.3
	c0.7-0.1,1.2-0.2,1.7-0.3c1.1-0.2,1.9-0.4,2.7-0.6C571,228.8,572.8,228.1,575.8,226.6L575.8,226.6z M576.3,227.5
	c-3.1,1.5-4.9,2.3-6.7,2.8c-0.8,0.2-1.7,0.4-2.8,0.6c-1.3,0.2-2.5,0.4-3.8,0.6c-0.8,0.1-1.4,0.2-2.9,0.3c-3.1,0.2-4.2,0.5-4.7,1.9
	c-0.8,1.8-0.2,5.6,2.1,12.2c1,3.1,2,6.2,2.7,9.3l1.7,7c1.5,5.7,2.6,8.6,4.3,10c1.9,1.6,4.5,0.9,8.5-2.4c11.8-10,18.6-22.3,20.8-35.7
	c1.4-8.4,1.7-10.5,1.3-12.3c-0.4-1.9-1.9-2-5.5-0.2c-2.9,1.5-5.8,2.7-8.9,3.6l-0.3,0.1C580,225.7,578.1,226.5,576.3,227.5z
	 M571.8,234c1.4-0.3,2.5-0.8,3.9-1.4c0.3-0.2,2.6-1.3,3.3-1.7c1.5-0.7,3-1.3,4.7-1.9c2.7-0.9,4.6-0.8,5.9,0.4c1,0.9,1.3,2.3,1.4,4.2
	c0,0.4,0,0.7,0,1.4c0,5.6-4.6,16.9-11.3,22.8c-4.3,3.8-7.3,4.7-9.9,2.5c-2.1-1.7-3.5-4.6-6.7-12.9c-1.9-4.8-2-8.1-0.7-10.2
	c1.1-1.7,2.9-2.4,5.8-2.7l1.3-0.1C570.7,234.2,571.2,234.1,571.8,234L571.8,234z M569.7,236.3l-1.2,0.1c-2.4,0.3-3.7,0.8-4.4,1.8
	c-0.9,1.4-0.8,4.1,0.9,8.4c3,7.8,4.4,10.7,6.1,12.1c1.6,1.3,3.6,0.8,7.3-2.5c6.3-5.5,10.7-16.2,10.7-21.3c0-0.6,0-0.9,0-1.3
	c0-1.4-0.3-2.3-0.8-2.8c-0.6-0.6-1.8-0.6-3.9,0c-1.5,0.5-3,1.1-4.5,1.8c-0.7,0.3-2.9,1.5-3.3,1.7c-1.4,0.7-2.8,1.2-4.3,1.6
	C571.6,236.1,571,236.2,569.7,236.3L569.7,236.3z M341.9,147.4c-1.6,4.3-3.5,7.3-7.1,11.4l-2.6,3c-0.9,1-1.8,2.1-2.6,3.2
	c-1.8,2.3-3.4,4.9-4.7,7.5c-2.9,5.7-7.1,10.2-12.9,13.9c-4.3,2.8-8.3,4.6-15.7,7.6c-11,4.4-16.4,1.3-27.2-16.4
	c-2.9-4.7-8.8-8.6-18-12.7c-3-1.3-12.9-5.2-14.4-5.9c-5-2.2-7-3.7-6.4-5.9c0.7-2.3,5.3-4.1,15.5-6.1c16.6-3.3,26.9-3.8,39.9-3
	c7.9,0.5,9.7,0.5,12.7-0.3c2-0.5,3.9-1.3,6-2.6l2.8-1.7c9.9-6.1,12.9-8,17.3-9.9c6-2.7,10.6-3.3,13.9-1.4
	C345.7,132.2,346.2,135.8,341.9,147.4L341.9,147.4z M340.1,146.7c4-10.7,3.6-13.3-2.6-16.8c-2.7-1.5-6.6-1-12.1,1.5
	c-4.2,1.9-7.3,3.7-17.1,9.8l-2.8,1.7c-2,1.3-4.2,2.2-6.6,2.8c-3.4,0.8-5.2,0.8-13.3,0.3c-12.8-0.8-23-0.3-39.4,3
	c-4.9,1-8.4,1.9-10.8,2.8c-2,0.8-3,1.4-3.2,1.9c-0.2,0.6,1.5,1.8,5.3,3.5c1.5,0.7,11.4,4.6,14.4,5.9c9.5,4.2,15.7,8.3,18.9,13.4
	c10.4,16.9,14.9,19.6,24.8,15.6c7.3-2.9,11.2-4.8,15.3-7.4c5.4-3.5,9.5-7.8,12.1-13.1c1.4-2.9,3-5.4,4.9-7.8
	c0.9-1.1,1.8-2.2,2.7-3.3l2.6-3C336.7,153.4,338.6,150.7,340.1,146.7L340.1,146.7z M333.4,146.3c-7.9,12.8-18.5,21.8-33.3,25.2
	c-7.8,1.8-12.5-0.8-13.1-5.9c-0.5-4.4,2.3-9.1,6-9.1c3,0,5.6-1.7,15.4-9.2c1.5-1.1,2.6-2,3.7-2.7c4.4-3.2,7.8-5.2,10.8-6.1
	c5.6-1.7,9.3-2.1,11.4-1.2C336.7,138.4,336.4,141.4,333.4,146.3L333.4,146.3z M332.6,145.7c2.7-4.4,2.9-6.7,1.2-7.5
	c-1.7-0.8-5.3-0.3-10.6,1.3c-2.9,0.9-6.2,2.8-10.5,5.9c-1.1,0.8-2.2,1.6-3.6,2.7c-10.1,7.7-12.6,9.4-16,9.4c-3,0-5.5,4-5,7.9
	c0.6,4.5,4.6,6.8,11.9,5.1C314.4,167.1,324.8,158.3,332.6,145.7L332.6,145.7z M461.2,33.5c13.9,5,20.8,5,31.6,0
	c3-1.4,5.5-2.9,11-6.8c5.6-3.9,8-5.5,11.1-6.9c4.1-1.9,7.8-2.4,11.2-1.3c3.9,1.3,6.2,12.3,6.8,28.5c0.5,14.2-0.5,28.9-2.5,34.2
	c-1.8,4.9-5.9,8.2-11.5,10c-4.2,1.3-8.6,1.9-13,1.8c-5.8,0-9,2.4-12.2,7.6c-0.4,0.6-1.5,2.6-1.7,2.9c-1.8,2.9-3,4.3-4.9,4.9
	c-0.9,0.3-2.1,0.8-3.9,1.7l-2.4,1.2c-1,0.5-1.9,0.9-2.7,1.3c-6.4,3.1-11.7,4.7-17.2,4.7c-5.7,0-10,2.1-14,5.9
	c-1.2,1.1-4.2,4.5-4.6,4.9c-2.5,2.4-5.9,4.2-10.9,6.1c-1.4,0.5-6,2.1-6.3,2.2l-2.1,0.8c-0.9,0.4-1.8,0.6-2.7,0.8
	c-5.5,1.1-11.1-0.5-18-4.4c-1.3-0.7-5.1-3.1-5.8-3.4c-2-1.2-4.1-1.5-9.1-1.9l-1.7-0.1c-4.8-0.4-7.7-1.1-10.2-3
	c-5-3.6-6.8-7.8-5.6-12.3c1.3-5.4,6.5-11,14.9-17.3c2.1-1.6,4.3-3.1,6.5-4.6c-0.3,0.2,4.3-2.9,5.3-3.6c2.7-1.9,4.8-3.9,12.8-12
	l1.1-1.1c3.5-3.6,5.9-5.9,8.1-7.8c2.9-2.5,4.7-6,7.5-13l0.6-1.6c2.7-6.9,4.3-10,6.9-12.3c1.4-1.3,6.7-6.5,7.9-7.5
	C445.6,29.1,449.6,29.4,461.2,33.5L461.2,33.5z M460.8,34.5c-11.3-4-15-4.3-18.6-1.5c-1.2,0.9-6.4,6.1-7.9,7.4
	c-2.4,2.2-4,5.2-6.6,12l-0.6,1.6c-2.8,7.3-4.7,10.8-7.8,13.4c-3.2,2.8-6.2,5.8-9.2,8.9c-8,8.2-10.1,10.2-12.9,12.2
	c-1,0.7-5.6,3.8-5.3,3.6c-2.5,1.7-4.5,3.1-6.5,4.6c-8.2,6.1-13.2,11.6-14.5,16.7c-1,4.2,0.6,7.9,5.3,11.3c2.4,1.7,5.1,2.4,9.7,2.8
	l1.7,0.1c5.1,0.4,7.3,0.8,9.5,2c0.6,0.4,4.5,2.7,5.8,3.4c6.7,3.8,12,5.4,17.3,4.3c0.9-0.2,1.7-0.4,2.5-0.8c0.7-0.3,1.4-0.5,2.1-0.8
	c0.3-0.1,4.9-1.7,6.2-2.2c4.8-1.8,8.1-3.6,10.5-5.9c0.4-0.4,3.4-3.8,4.6-4.9c4.2-4,8.7-6.2,14.7-6.2c5.3,0,10.4-1.6,16.7-4.6
	c0.8-0.4,1.6-0.8,2.7-1.3c0.1-0.1,1.9-1,2.4-1.2c1.8-0.9,3-1.5,4-1.8c1.6-0.5,2.8-1.8,4.4-4.5l1.7-2.9c3.4-5.5,6.9-8.1,13.1-8.1
	c4.5,0,8.7-0.5,12.6-1.8c5.4-1.8,9.2-4.8,10.9-9.4c1.9-5.1,2.9-19.8,2.4-33.8c-0.6-15.5-2.8-26.5-6.1-27.5c-3.2-1-6.6-0.5-10.5,1.2
	c-3,1.4-5.5,2.9-11,6.8c-5.6,3.9-8,5.5-11.1,6.9C482.1,39.5,475,39.5,460.8,34.5L460.8,34.5z M475,55c5.4,0,7.5-0.2,9.7-1
	c1.3-0.4,10-4.8,14.9-7c1.9-0.8,3.6-2.4,6.6-6c2.6-3,3.2-3.8,4.4-4.8c3.7-3.3,7.1-3.3,10.2,1.2c6.2,8.9,5.6,15.9,0.1,27
	c-0.9,1.8-1.7,3.6-2.5,5.5c-0.3,0.8-1,2.7-1.1,2.9c-0.2,0.4-0.3,0.8-0.5,1.2c-0.6,1.1-1.6,2.2-4,4.7c-2.4,2.4-5.2,3.3-11.7,4.3
	c-1.8,0.3-2.2,0.4-3,0.5c-6,1.1-9.6,2.7-12.2,6.1c-3.6,4.6-7.9,7.5-15,10.7c-0.5,0.2-1.1,0.5-1.8,0.8l-1.8,0.8
	c-2.7,1.1-5.2,2.4-7.7,3.9c-2.6,1.6-4.8,2.3-9.4,3.5c-8.6,2.1-12.3,3.8-17.4,9.4s-10.2,7.6-16.6,6.7c-5.4-0.8-10.6-3-23.6-9.5
	c-6.3-3.2-6.4-7.8-1.5-13.6c3.4-3.9,3.5-4.1,19.4-16.4c8.1-6.3,13-10.6,16.6-14.9c2.5-3,4.2-5.7,5-8.3c5.5-18.3,12.5-22,22.8-15.6
	c2,1.2,6.6,4.5,7.2,4.9C465.4,54.2,468.5,55,475,55z M475,57c-6.8,0-10.4-0.9-14.1-3.3c-0.6-0.4-5.3-3.7-7.2-4.9
	c-9-5.7-14.7-2.7-19.8,14.5c-0.9,2.9-2.7,5.8-5.4,9c-3.8,4.4-8.7,8.8-16.9,15.2c-15.7,12.2-15.9,12.4-19.1,16.2
	c-4.2,4.9-4.1,8,0.9,10.5c12.7,6.3,17.9,8.5,22.9,9.3c5.8,0.8,10.2-0.9,14.9-6.1c5.4-6,9.5-7.8,18.4-10c4.4-1.1,6.5-1.8,8.8-3.2
	c2.5-1.5,5.2-2.9,7.9-4l1.8-0.8l1.8-0.8c6.8-3.1,10.9-5.9,14.2-10.1c3-3.9,7-5.6,13.5-6.8c0.8-0.2,1.2-0.2,3-0.5
	c6.1-1,8.6-1.8,10.6-3.8c2.4-2.4,3.2-3.3,3.7-4.3c0.2-0.3,0.3-0.6,0.4-0.9c0.1-0.2,0.8-2.1,1.1-2.9c0.6-1.6,1.5-3.4,2.6-5.6
	c5.2-10.5,5.8-16.8,0.1-25c-2.4-3.4-4.4-3.5-7.2-0.9c-1.1,1-1.7,1.7-4.2,4.7c-3.2,3.8-5,5.6-7.3,6.6c-4.8,2.1-13.6,6.5-15,7
	C482.9,56.8,480.6,57,475,57z M462.3,65.6c5.5,3.9,10.3,3.7,18.2,0.9c5.4-1.9,5.9-2.1,7.7-2.1c2.5,0,4.2,1.4,5.2,4.5
	c1.7,5-2.3,8.5-12.3,12.7c-2.7,1.1-16.3,6.2-20,7.7c-7.9,3.2-13.9,6.4-18.9,10.2c-13,9.8-18.4,11.9-23.7,9.7c-1.3-0.6-2.5-1.2-3.6-2
	l-2-1.3c-0.7-0.5-1.5-0.9-2.2-1.4c-3.3-2-2.8-4.3,0.9-7.3c1.4-1.1,10.7-7.6,13.5-9.9c7.1-5.7,11.9-11.5,14.4-18.3
	c3.1-8.5,4.9-12.1,6.8-13.4c1.7-1.2,3.4-0.5,6.2,1.9c0.6,0.6,3.4,3.1,4.1,3.7C458.6,62.7,460.3,64.2,462.3,65.6L462.3,65.6z
	 M461.7,66.4c-2-1.4-3.8-2.9-5.7-4.6c-0.7-0.6-3.5-3.2-4.1-3.7c-2.5-2.2-3.8-2.7-5-1.8c-1.7,1.1-3.4,4.7-6.4,12.9
	c-2.6,7.1-7.5,13-14.7,18.8c-2.9,2.3-12.2,8.8-13.5,9.9c-3.2,2.7-3.6,4.2-1,5.7l2.3,1.4l2,1.3c1.5,0.9,2.5,1.5,3.5,1.9
	c4.9,2.1,10,0.1,22.7-9.6c5-3.8,11.1-7,19.1-10.3c3.8-1.6,17.3-6.6,20-7.7c9.5-4,13.1-7.2,11.7-11.4c-0.9-2.7-2.3-3.8-4.3-3.8
	c-1.6,0-2.1,0.2-7.4,2.1C472.7,70.4,467.5,70.6,461.7,66.4L461.7,66.4z"/>
</svg>
